<?xml version="1.0" standalone="no"?>
<!DOCTYPE svg PUBLIC "-//W3C//DTD SVG 20010904//EN"
 "http://www.w3.org/TR/2001/REC-SVG-20010904/DTD/svg10.dtd">
<svg version="1.0" xmlns="http://www.w3.org/2000/svg"
 width="542.000000pt" height="542.000000pt" viewBox="0 0 542.000000 542.000000"
 preserveAspectRatio="xMidYMid meet">
<metadata>
Created by potrace 1.11, written by Peter Selinger 2001-2013
</metadata>
<g transform="translate(0.000000,542.000000) scale(0.100000,-0.100000)"
fill="#000000" stroke="none">
<path d="M977 3824 c-1 -1 -27 -4 -57 -7 -201 -21 -444 -196 -638 -460 -22
-29 -60 -95 -85 -147 -161 -333 -112 -684 127 -908 167 -156 392 -219 676
-189 204 21 329 86 425 222 46 64 105 182 105 210 0 8 4 15 8 15 5 0 9 -21 11
-47 1 -27 6 -76 10 -110 22 -184 -14 -374 -110 -566 -16 -32 -29 -61 -29 -64
0 -13 66 79 109 152 98 167 123 261 126 470 5 311 -34 435 -129 411 -34 -8
-56 -44 -101 -164 -77 -208 -154 -299 -295 -348 -46 -16 -83 -19 -220 -19
-151 1 -172 3 -245 28 -244 81 -384 274 -385 532 -1 105 27 212 85 330 53 107
117 193 216 294 212 215 394 279 596 209 98 -34 150 -92 136 -149 -26 -103
-209 -241 -412 -310 l-86 -29 55 6 c213 22 445 147 511 275 10 21 22 55 25 75
16 105 -98 220 -266 268 -46 13 -155 27 -163 20z"/>
<path d="M3661 3341 c-25 -25 -26 -53 -6 -111 9 -26 14 -69 13 -109 l-3 -65
87 -61 c81 -57 167 -142 169 -168 0 -7 2 -33 4 -58 2 -26 14 -73 27 -104 18
-46 29 -61 51 -68 22 -7 33 -6 44 6 13 13 13 18 -2 47 -14 26 -15 47 -10 109
9 95 8 90 1 127 -11 57 -36 104 -86 159 -28 30 -50 59 -50 63 0 4 -20 29 -44
56 -42 45 -47 48 -83 41 -33 -5 -43 -2 -66 19 -30 28 -34 61 -12 93 13 18 13
22 0 33 -11 9 -18 7 -34 -9z m180 -202 c27 -22 49 -47 49 -56 0 -8 15 -29 33
-46 19 -18 42 -54 52 -82 9 -27 24 -64 31 -82 8 -17 14 -61 14 -98 0 -58 -2
-66 -17 -63 -13 2 -19 14 -20 38 -8 121 -19 167 -48 204 -42 53 -97 108 -129
129 -30 21 -49 59 -40 82 9 23 22 19 75 -26z"/>
<path d="M1857 3179 c-25 -22 -32 -44 -28 -91 0 -10 13 -25 27 -35 26 -16 27
-16 46 7 10 13 16 30 13 38 -4 11 0 13 17 8 48 -15 106 -18 127 -7 23 13 28
31 8 31 -7 0 -32 14 -56 31 -58 43 -117 50 -154 18z"/>
<path d="M2195 2989 c-11 -6 -39 -38 -62 -72 -23 -34 -63 -87 -88 -117 -66
-78 -75 -89 -120 -145 -21 -27 -42 -54 -47 -59 -4 -5 -6 6 -4 25 12 107 18
156 22 174 2 11 6 31 9 45 3 14 11 52 19 85 8 33 12 62 9 65 -23 22 -162 -243
-197 -377 -47 -178 -26 -287 68 -350 55 -37 104 -43 163 -18 l37 16 -47 47
c-47 48 -52 63 -83 230 -5 25 23 62 143 190 56 59 83 76 83 51 0 -6 -11 -54
-24 -107 -14 -53 -28 -117 -31 -142 -26 -171 -26 -192 1 -221 39 -43 87 -12
166 105 105 156 227 273 302 292 23 5 33 -6 41 -46 1 -3 4 -18 8 -35 3 -16 9
-50 12 -75 16 -121 60 -194 125 -205 60 -10 121 22 207 111 72 74 73 75 82 51
26 -67 149 -146 260 -167 179 -34 388 16 501 120 l44 41 43 -31 c94 -68 204
-99 288 -80 30 6 30 7 -15 19 -25 7 -52 14 -61 17 -50 14 -161 121 -229 219
-17 25 -34 45 -38 44 -4 0 -26 -25 -50 -55 -75 -94 -184 -135 -347 -130 -77 2
-111 8 -150 25 -100 45 -117 84 -66 162 40 59 50 70 91 101 108 79 269 66 367
-29 60 -60 59 -103 -7 -147 -30 -20 -11 -21 35 -2 157 66 13 314 -207 355 -98
18 -212 -4 -288 -55 -118 -80 -192 -193 -196 -298 -2 -60 -3 -62 -45 -93 -47
-34 -107 -54 -139 -46 -24 6 -50 61 -54 116 -14 154 -43 239 -96 277 -39 27
-113 30 -164 5 -47 -22 -149 -116 -219 -200 -58 -69 -57 -65 19 123 30 74 54
139 54 146 0 39 -81 68 -125 45z"/>
<path d="M4392 2944 c-188 -55 -278 -134 -287 -253 -8 -118 108 -181 377 -206
37 -3 77 -8 90 -10 13 -2 46 -7 73 -11 140 -21 233 -61 259 -112 19 -37 14
-88 -10 -112 -10 -10 -38 -23 -62 -29 -44 -9 -169 -8 -232 3 -104 18 -211 42
-348 76 -247 63 -361 53 -614 -51 -214 -88 -291 -112 -473 -145 -120 -22 -123
-23 -227 -30 -79 -5 -102 -3 -130 10 -30 15 -31 15 -17 1 9 -9 34 -21 55 -25
36 -9 294 -6 339 3 11 3 47 8 80 11 170 20 254 35 370 66 262 69 353 73 525
20 402 -122 611 -148 769 -95 104 34 167 132 163 251 -5 142 -88 237 -255 289
-84 27 -145 35 -369 50 -94 6 -107 8 -180 26 -53 12 -57 20 -29 64 60 97 370
191 430 130 50 -50 24 -134 -42 -136 l-32 -1 30 -10 c65 -21 119 29 118 111 0
52 -19 90 -61 118 -44 29 -205 28 -310 -3z"/>
<path d="M1977 2139 c-9 -13 -19 -44 -22 -69 -5 -37 -2 -49 12 -62 16 -14 23
-15 56 -3 32 11 37 11 37 -2 0 -25 35 -10 38 17 2 14 5 32 8 40 8 24 27 -16
19 -40 -10 -31 8 -24 27 11 10 17 22 27 28 24 5 -3 10 -1 10 4 0 6 -7 11 -15
11 -11 0 -12 5 -5 25 6 15 6 26 0 30 -6 4 -12 -1 -15 -9 -3 -9 -7 -23 -10 -31
-5 -17 -25 -21 -25 -5 0 7 -6 7 -20 0 -13 -7 -20 -22 -21 -43 -1 -18 -3 -24
-6 -14 -3 13 -10 16 -21 11 -43 -18 -69 -16 -75 5 -6 26 8 36 52 36 19 0 36 5
38 10 2 6 -9 10 -24 9 -33 -1 -53 5 -53 17 0 5 27 9 59 9 33 0 63 5 66 10 6
10 -13 13 -80 13 -16 0 -33 4 -36 10 -4 5 -14 -1 -22 -14z"/>
<path d="M2328 2088 c-27 -58 -38 -112 -19 -92 17 17 61 138 54 145 -5 5 -20
-19 -35 -53z"/>
<path d="M2586 2125 c4 -15 -3 -25 -25 -38 -24 -14 -30 -15 -25 -3 3 8 13 17
22 21 14 5 14 7 2 15 -17 10 -50 -15 -50 -38 0 -7 -8 -27 -17 -43 -14 -23 -15
-31 -5 -41 16 -16 47 1 47 25 0 8 17 30 38 49 36 31 37 34 23 53 -15 20 -15
20 -10 0z"/>
<path d="M2401 2099 c-13 -17 -20 -37 -17 -46 6 -14 9 -14 26 2 24 22 25 18 4
-30 -12 -28 -12 -36 -2 -33 11 4 55 105 57 131 1 4 -9 7 -22 7 -14 0 -32 -12
-46 -31z"/>
<path d="M2641 2122 c-22 -7 -10 -24 14 -20 30 6 31 -1 4 -46 -34 -58 -16 -64
20 -7 18 30 30 60 27 67 -5 13 -36 16 -65 6z"/>
<path d="M5130 2120 c0 -5 5 -10 10 -10 6 0 10 -18 10 -40 0 -45 19 -56 21
-12 1 15 1 33 0 40 -1 6 5 12 14 12 8 0 15 5 15 10 0 6 -16 10 -35 10 -19 0
-35 -4 -35 -10z"/>
<path d="M5209 2110 c-4 -62 -1 -80 10 -80 6 0 8 9 6 20 -6 30 10 24 21 -7
l10 -28 22 40 22 40 -5 -32 c-3 -19 -1 -33 5 -33 10 0 12 6 12 40 0 47 -3 60
-13 60 -5 0 -15 -13 -20 -30 -12 -33 -29 -40 -29 -12 0 19 -18 42 -32 42 -4 0
-8 -9 -9 -20z"/>
<path d="M2190 2010 c0 -5 4 -10 9 -10 6 0 13 5 16 10 3 6 -1 10 -9 10 -9 0
-16 -4 -16 -10z"/>
<path d="M3952 1988 c-5 -7 -22 -47 -36 -88 -15 -41 -32 -78 -39 -82 -20 -12
-29 3 -22 42 7 41 -8 62 -24 33 -9 -18 -11 -25 -11 -43 0 -5 -10 -20 -22 -32
-13 -13 -17 -23 -11 -25 8 -3 8 -14 2 -36 -12 -42 -11 -47 5 -47 8 0 17 12 21
28 8 31 33 62 51 62 8 0 11 -12 7 -40 -7 -49 10 -47 42 3 25 39 54 49 48 15
-2 -13 2 -31 10 -42 11 -15 17 -17 35 -7 17 9 26 9 42 -1 16 -11 26 -10 54 6
47 25 55 48 8 25 -26 -14 -39 -16 -49 -8 -14 13 -8 29 11 29 20 0 49 37 43 54
-10 26 -67 -1 -82 -38 -7 -17 -11 -34 -9 -38 3 -5 -4 -8 -15 -8 -18 0 -21 6
-21 39 0 48 -11 57 -50 38 l-29 -15 20 50 c10 27 28 67 39 88 11 22 20 42 20
45 0 10 -28 5 -38 -7z"/>
<path d="M4294 1945 c-40 -92 -70 -203 -57 -216 8 -8 15 -4 26 18 18 34 45 59
53 50 4 -3 7 -18 7 -31 0 -34 20 -51 45 -37 13 7 22 7 29 0 6 -6 14 -5 21 3
14 17 38 106 30 113 -7 8 -39 -6 -33 -14 2 -4 -1 -24 -7 -44 -9 -29 -17 -37
-35 -37 -20 0 -23 5 -23 40 0 44 -19 61 -45 40 -9 -7 -18 -11 -21 -8 -6 7 45
136 57 144 15 9 10 34 -7 34 -9 0 -25 -22 -40 -55z"/>
<path d="M3020 1921 c-25 -17 -3 -25 60 -22 36 1 60 -2 60 -8 0 -6 -18 -38
-40 -72 -39 -61 -51 -111 -29 -124 18 -11 53 4 73 31 l18 26 -30 -16 c-25 -13
-31 -13 -35 -2 -7 17 79 155 96 157 7 1 36 2 66 3 67 1 80 22 19 28 -84 9
-243 8 -258 -1z"/>
<path d="M4450 1918 c0 -7 16 -26 35 -42 34 -28 34 -30 19 -53 -9 -15 -13 -35
-10 -51 6 -28 -8 -62 -20 -49 -4 3 -3 12 2 20 5 7 1 4 -8 -6 -20 -21 -23 -36
-8 -38 6 -1 16 -2 23 -3 27 -5 46 26 45 71 -2 33 2 47 15 54 22 13 22 29 -1
29 -22 0 -48 27 -54 55 -4 22 -38 34 -38 13z"/>
<path d="M3530 1873 c-7 -21 -22 -46 -34 -55 -19 -15 -19 -17 -4 -23 16 -6 16
-9 2 -37 -10 -20 -12 -34 -6 -40 14 -14 29 -3 37 29 8 34 23 53 40 53 8 0 11
-8 8 -19 -7 -26 14 -61 35 -61 23 0 82 37 82 51 0 8 -6 7 -17 -3 -28 -24 -51
-28 -64 -12 -13 16 -14 16 24 32 16 7 27 19 27 31 0 30 -19 35 -48 14 -35 -25
-65 -19 -56 10 11 34 10 60 -3 64 -6 2 -17 -13 -23 -34z"/>
<path d="M4611 1891 c-6 -11 -11 -27 -11 -35 0 -8 -10 -25 -22 -36 -17 -16
-20 -23 -10 -29 10 -6 10 -14 2 -35 -13 -36 -13 -46 3 -46 7 0 19 17 26 38 24
66 58 72 57 10 -1 -37 2 -43 20 -46 32 -5 54 24 54 69 0 24 5 39 13 40 6 0 -1
5 -18 10 -20 6 -34 5 -45 -5 -8 -7 -23 -11 -33 -8 -15 3 -17 10 -12 42 7 43
-8 62 -24 31z m89 -131 c0 -11 -4 -20 -10 -20 -5 0 -10 9 -10 20 0 11 5 20 10
20 6 0 10 -9 10 -20z"/>
<path d="M3294 1830 c-15 -10 -37 -31 -50 -47 -44 -53 -25 -74 37 -43 l41 21
15 -20 c8 -12 20 -21 27 -21 8 0 16 -7 19 -15 7 -17 46 -12 59 7 4 7 8 31 8
52 0 27 7 47 22 63 16 17 18 23 7 23 -29 0 -59 -31 -59 -60 0 -30 -12 -42 -44
-47 -15 -3 -17 2 -13 23 6 34 -12 40 -55 18 l-33 -17 19 22 c11 11 30 21 43
21 13 0 23 6 23 14 0 22 -36 25 -66 6z m121 -99 c-3 -6 -11 -11 -17 -11 -6 0
-6 6 2 15 14 17 26 13 15 -4z"/>
<path d="M5036 1842 c-2 -4 -1 -14 5 -22 7 -12 9 -10 9 8 0 23 -5 28 -14 14z"/>
<path d="M4764 1813 c-3 -16 -10 -41 -15 -57 -12 -39 -11 -46 6 -46 8 0 21 15
29 34 16 38 26 46 66 53 25 3 29 1 28 -19 0 -13 0 -29 1 -35 2 -20 43 -15 68
9 22 20 23 20 23 2 -1 -37 -39 -104 -72 -124 -41 -25 -62 -26 -53 -2 5 13 3
14 -5 6 -7 -7 -10 -20 -8 -30 9 -45 111 3 144 67 19 38 30 144 16 153 -10 6
-62 -41 -62 -56 0 -5 -5 -8 -11 -8 -6 0 -10 12 -9 28 3 41 1 45 -14 33 -9 -8
-22 -8 -38 -2 -15 5 -31 5 -41 0 -13 -8 -17 -6 -17 6 0 26 -29 16 -36 -12z"/>
<path d="M5060 1824 c0 -8 9 -14 21 -14 11 0 19 5 17 12 -6 17 -38 19 -38 2z"/>
</g>
</svg>
