<?xml version="1.0" encoding="utf-8"?>
<!-- Generator: Adobe Illustrator 16.0.0, SVG Export Plug-In . SVG Version: 6.00 Build 0)  -->
<!DOCTYPE svg PUBLIC "-//W3C//DTD SVG 1.1//EN" "http://www.w3.org/Graphics/SVG/1.1/DTD/svg11.dtd">
<svg version="1.1" id="Layer_1" xmlns="http://www.w3.org/2000/svg" xmlns:xlink="http://www.w3.org/1999/xlink" x="0px" y="0px"
	 width="200px" height="100px" viewBox="0 0 200 100" enable-background="new 0 0 200 100" xml:space="preserve">
<g>
	<g>
		<path fill="#FFFFFF" d="M119.199,36.771c-0.262,0.832,0.307,1.112,1.061,1.97c-0.086,0.361,4.396,2.335,5.622,4.283
			c0.951,1.064,2.069,2.022,2.35,3.536c-0.358,0.271-0.062,2.912,0.409,3.675c0.085,0.403,0.47,1.358,0.396,1.513
			c1.064,3.07,4.389,1.797,3.276,0.558c-0.682-0.76-0.727-1.671-0.769-2.603c0.052-0.848,0.201-1.692,0.178-2.545
			c0.792-2.501-0.69-6.799-2.681-8.346c0.021,0.001,0.038-0.019,0.022-0.041c-0.274-0.38-0.582-0.761-0.985-1.004
			c-0.367-0.221-0.547-0.311-0.703-0.76c-0.06-0.174-0.08-0.332-0.171-0.5c-0.245-0.432-0.657-0.76-0.943-1.164
			c-0.094-0.13-0.175-0.249-0.265-0.349c-0.997-1.805-2.046-2.265-3.654-1.621c-0.169,0.007-0.339,0.022-0.512,0
			c-0.409-0.051-0.596-0.367-0.902-0.595c-0.218-0.16-0.498-0.181-0.718-0.336c-0.076-0.053-0.142-0.118-0.202-0.187
			c-0.379-0.713-0.288-1.984,0.373-3.008c1.329-2.052-3.046-1.009-1.506,2.52C119.598,33.424,119.737,35.051,119.199,36.771z
			 M123.074,33.979c0.055-0.03,0.107-0.053,0.157-0.071c0.028,0.011,0.053,0.017,0.084,0.009c0.163-0.041,0.307-0.024,0.438,0.033
			c0.124,0.063,0.241,0.157,0.361,0.267c0.244,0.258,0.445,0.6,0.66,0.792c0.393,0.347,0.86,0.599,1.264,0.928
			c0.544,0.44,0.816,0.871,0.915,1.563c0.045,0.297,0.052,0.517,0.317,0.696c0.121,0.083,0.271,0.091,0.405,0.139
			c0.191,0.066,0.353,0.157,0.496,0.27c0.406,0.546,0.771,1.104,1.097,1.671c0.018,0.039,0.033,0.073,0.05,0.11
			c0.241,0.52,0.461,1.047,0.678,1.577c-0.015,0.227,0.72,2.112,1.022,2.678c0.027,0.048,0.047,0.102,0.07,0.154
			c0.099,0.381,0.191,0.771,0.277,1.161c0.002,0.471-0.012,0.944-0.043,1.433c-0.043,0.577-0.016,1.157-0.07,1.731
			c-0.021,0.243-0.063,0.47-0.087,0.696c-0.024,0.04-0.047,0.079-0.078,0.116c-0.032,0.041-0.095,0.085-0.149,0.129
			c-0.085-0.008-0.188-0.035-0.314-0.096c-2.039-0.956,0.485-1.549-0.829-2.896c-1.099-1.121,1.074-3.515-1.918-5.645
			c-0.132-0.093-0.23-0.272-0.285-0.43c-0.55-1.626-1.774-2.575-3.23-3.345C122.305,36.558,122.302,34.428,123.074,33.979z"/>
		<g>
			<g>
				<path fill="#FFFFFF" d="M65.944,72.431c0.037-0.076,0.033-0.134-0.012-0.172c-0.046-0.038-0.146-0.034-0.299,0.012
					c-0.151,0.046-0.266,0.088-0.344,0.126s-0.275,0.143-0.6,0.313s-0.631,0.287-0.923,0.353c-0.292,0.065-0.516,0.069-0.667,0.012
					c-0.153-0.058-0.264-0.186-0.33-0.384c-0.066-0.199-0.106-0.413-0.119-0.64c-0.012-0.228-0.002-0.433,0.029-0.613
					c0.031-0.182,0.072-0.307,0.12-0.376c0.048-0.069,0.25-0.09,0.603-0.063c0.353,0.026,0.749,0.028,1.193,0.005
					c0.443-0.022,0.777-0.063,1-0.117c0.224-0.056,0.359-0.114,0.404-0.176c0.045-0.061,0.078-0.11,0.091-0.148
					c0.015-0.037-0.025-0.054-0.126-0.046c-0.099,0.009-0.231,0.009-0.4,0c-0.169-0.008-0.284-0.014-0.347-0.02
					c-0.063-0.006-0.141-0.017-0.232-0.032c-0.092-0.015-0.187-0.019-0.287-0.011c-0.1,0.008-0.344,0-0.733-0.023
					c-0.391-0.022-0.656-0.052-0.798-0.086c-0.14-0.034-0.192-0.132-0.155-0.293c0.038-0.16,0.098-0.292,0.174-0.396
					c0.078-0.103,0.369-0.169,0.866-0.197c0.499-0.028,0.944-0.043,1.337-0.043c0.393,0,0.691-0.006,0.897-0.018
					c0.207-0.012,0.412-0.009,0.62,0.006c0.206,0.015,0.387-0.004,0.538-0.058c0.153-0.054,0.238-0.091,0.253-0.114
					c0.015-0.023,0.011-0.062-0.013-0.115c-0.021-0.053-0.169-0.11-0.435-0.172c-0.267-0.061-0.697-0.11-1.285-0.148
					c-0.587-0.038-1.132-0.025-1.631,0.037c-0.5,0.063-0.746,0.063-0.737,0.003c0.009-0.062-0.003-0.135-0.035-0.218
					c-0.031-0.084-0.083-0.146-0.16-0.184s-0.157-0.046-0.242-0.022c-0.083,0.022-0.215,0.194-0.396,0.519
					c-0.18,0.323-0.344,0.768-0.493,1.336c-0.148,0.567-0.236,1.049-0.257,1.441c-0.023,0.394-0.009,0.702,0.045,0.924
					c0.054,0.222,0.119,0.404,0.195,0.551c0.076,0.145,0.18,0.264,0.309,0.354c0.13,0.092,0.239,0.149,0.32,0.173
					c0.083,0.022,0.176,0.034,0.275,0.034c0.102,0,0.242-0.02,0.426-0.058c0.182-0.037,0.374-0.097,0.576-0.175
					c0.201-0.078,0.4-0.179,0.603-0.301c0.2-0.123,0.406-0.241,0.619-0.355c0.212-0.114,0.35-0.195,0.409-0.241
					C65.855,72.568,65.906,72.508,65.944,72.431z"/>
				<path fill="#FFFFFF" d="M67.689,70.757c-0.032-0.08-0.126-0.108-0.277-0.086c-0.153,0.022-0.308,0.072-0.459,0.149
					c-0.151,0.076-0.284,0.169-0.393,0.277c-0.109,0.109-0.192,0.238-0.247,0.387c-0.055,0.149-0.055,0.372,0,0.669
					c0.055,0.296,0.085,0.486,0.089,0.572c0.002,0.087-0.009,0.181-0.041,0.281c-0.031,0.102-0.078,0.188-0.14,0.259
					c-0.063,0.07-0.149,0.127-0.258,0.169s-0.204,0.02-0.282-0.068c-0.077-0.089,0.064-0.315,0.422-0.68
					c0.359-0.365,0.328-0.354-0.099,0.034c-0.428,0.388-0.629,0.653-0.602,0.797c0.025,0.144,0.091,0.238,0.2,0.283
					c0.109,0.047,0.212,0.069,0.307,0.069c0.095,0,0.212-0.018,0.347-0.052c0.134-0.034,0.248-0.088,0.34-0.16
					s0.179-0.188,0.258-0.347c0.081-0.158,0.103-0.35,0.07-0.57c-0.035-0.223-0.066-0.371-0.096-0.448
					c-0.028-0.076-0.035-0.215-0.014-0.415c0.02-0.201,0.092-0.375,0.218-0.521c0.126-0.147,0.243-0.227,0.352-0.235
					c0.11-0.01,0.195-0.053,0.257-0.13C67.707,70.915,67.721,70.837,67.689,70.757z"/>
				<path fill="#FFFFFF" d="M70.236,71.416c-0.37,0.008-0.637-0.004-0.806-0.034c-0.169-0.031-0.286-0.062-0.355-0.092
					c-0.068-0.031-0.071-0.168-0.011-0.413c0.06-0.244,0.112-0.435,0.149-0.57c0.038-0.136,0.078-0.246,0.12-0.329
					c0.043-0.085,0.049-0.165,0.018-0.241c-0.031-0.077-0.068-0.142-0.114-0.195s-0.118-0.084-0.218-0.092
					c-0.101-0.008-0.172,0.015-0.219,0.068c-0.045,0.055-0.085,0.164-0.121,0.333c-0.033,0.169-0.06,0.302-0.074,0.398
					c-0.014,0.098-0.066,0.295-0.149,0.591c-0.083,0.296-0.181,0.445-0.286,0.447c-0.107,0.002-0.23,0.037-0.367,0.106
					c-0.138,0.068-0.208,0.157-0.21,0.267c-0.003,0.108,0.04,0.162,0.126,0.16c0.086-0.002,0.183-0.012,0.295-0.031
					c0.111-0.02,0.161,0.008,0.149,0.08c-0.012,0.072-0.078,0.258-0.202,0.557c-0.123,0.298-0.216,0.556-0.289,0.773
					c-0.072,0.218-0.072,0.342-0.003,0.373c0.068,0.031,0.146,0.034,0.229,0.012c0.083-0.023,0.152-0.058,0.206-0.104
					c0.055-0.046,0.103-0.136,0.151-0.27c0.049-0.134,0.148-0.402,0.299-0.806c0.151-0.403,0.258-0.616,0.321-0.637
					c0.064-0.021,0.192-0.057,0.39-0.105c0.198-0.05,0.499-0.106,0.909-0.167S70.606,71.408,70.236,71.416z"/>
				<path fill="#FFFFFF" d="M70.301,72.814c-0.183-0.007-0.313,0.027-0.39,0.104c-0.076,0.076-0.115,0.156-0.115,0.24
					s0.058,0.176,0.173,0.275s0.229,0.138,0.344,0.115c0.114-0.023,0.218-0.085,0.31-0.184c0.091-0.101,0.128-0.192,0.114-0.276
					c-0.015-0.083-0.046-0.148-0.092-0.194C70.6,72.85,70.485,72.823,70.301,72.814z"/>
				<path fill="#FFFFFF" d="M75.503,68.753c-0.073,0.005-0.119,0.037-0.138,0.095c-0.015,0.057-0.218,0.515-0.604,1.373
					c-0.388,0.857-0.629,1.388-0.72,1.588c-0.091,0.201-0.155,0.382-0.193,0.542c-0.037,0.161-0.09,0.373-0.168,0.637
					c-0.078,0.264-0.118,0.465-0.126,0.604s0,0.235,0.02,0.287c0.021,0.052,0.029,0.089,0.025,0.111
					c-0.002,0.023,0.027,0.02,0.092-0.011c0.067-0.031,0.154-0.15,0.267-0.358c0.113-0.209,0.458-1.015,1.041-2.417
					c0.583-1.402,0.86-2.139,0.837-2.205c-0.024-0.066-0.067-0.126-0.129-0.178C75.643,68.771,75.574,68.747,75.503,68.753z"/>
				<path fill="#FFFFFF" d="M78.925,69.18c-0.083-0.022-0.218-0.022-0.401,0c-0.183,0.023-0.317,0.05-0.4,0.08
					c-0.083,0.031-0.186,0.088-0.31,0.173c-0.123,0.083-0.264,0.206-0.424,0.366c-0.161,0.161-0.333,0.359-0.516,0.597
					c-0.184,0.237-0.295,0.39-0.333,0.459c-0.039,0.068-0.101,0.187-0.185,0.355c-0.083,0.168-0.115,0.274-0.091,0.32
					c0.023,0.047,0.042,0.115,0.056,0.207c0.016,0.091,0.05,0.164,0.105,0.218c0.054,0.054,0.125,0.088,0.218,0.103
					c0.092,0.016,0.174,0.008,0.251-0.022c0.079-0.031,0.23-0.146,0.459-0.344c0.229-0.198,0.396-0.347,0.499-0.441
					c0.103-0.096,0.187-0.195,0.253-0.298c0.065-0.104,0.097-0.129,0.097-0.075s-0.035,0.149-0.103,0.287
					c-0.07,0.137-0.149,0.358-0.241,0.664c-0.091,0.307-0.192,0.563-0.299,0.769c-0.105,0.207-0.21,0.421-0.309,0.643
					c-0.101,0.222-0.138,0.375-0.115,0.459c0.023,0.084,0.072,0.135,0.15,0.149c0.076,0.015,0.151,0.008,0.229-0.023
					c0.077-0.03,0.145-0.118,0.205-0.264c0.061-0.146,0.152-0.367,0.276-0.665c0.122-0.299,0.329-0.834,0.619-1.605
					c0.29-0.772,0.45-1.246,0.482-1.422c0.031-0.176,0.056-0.299,0.08-0.367c0.023-0.068,0.009-0.134-0.044-0.195
					C79.076,69.245,79.009,69.203,78.925,69.18z M78.189,70.172c-0.144,0.187-0.241,0.3-0.295,0.338
					c-0.054,0.038-0.124,0.108-0.209,0.209c-0.087,0.102-0.181,0.209-0.287,0.322c-0.107,0.112-0.21,0.197-0.315,0.252
					c-0.107,0.055-0.159,0.048-0.155-0.023c0.002-0.07,0.088-0.205,0.26-0.404c0.172-0.198,0.285-0.324,0.338-0.378
					c0.056-0.054,0.134-0.138,0.242-0.253c0.105-0.114,0.194-0.198,0.262-0.252c0.07-0.054,0.147-0.082,0.236-0.086
					C78.358,69.893,78.333,69.984,78.189,70.172z"/>
				<path fill="#FFFFFF" d="M83.258,68.984c-0.305-0.366-0.324-0.383-0.057-0.048c0.266,0.334,0.364,0.576,0.292,0.728
					s-0.141,0.271-0.208,0.358c-0.066,0.089-0.169,0.193-0.307,0.315c-0.137,0.123-0.369,0.272-0.699,0.447
					c-0.33,0.176-0.537,0.286-0.619,0.333c-0.084,0.046-0.158,0.076-0.218,0.092c-0.061,0.015-0.104-0.003-0.126-0.055
					c-0.024-0.052-0.035-0.117-0.032-0.195c0.003-0.078,0.02-0.161,0.054-0.25c0.034-0.088,0.115-0.205,0.237-0.354
					c0.125-0.149,0.229-0.247,0.313-0.293c0.083-0.046,0.181-0.057,0.287-0.034c0.105,0.022,0.198,0.008,0.276-0.046
					c0.076-0.054,0.099-0.129,0.068-0.229c-0.031-0.1-0.08-0.176-0.15-0.229c-0.068-0.054-0.156-0.095-0.263-0.126
					c-0.106-0.03-0.253-0.012-0.436,0.058c-0.184,0.068-0.342,0.164-0.47,0.286c-0.129,0.123-0.255,0.273-0.372,0.453
					c-0.118,0.181-0.19,0.365-0.215,0.557c-0.026,0.191-0.026,0.33-0.007,0.418c0.021,0.089,0.036,0.192,0.038,0.313
					c0.003,0.12-0.023,0.212-0.08,0.274c-0.058,0.063-0.124,0.126-0.2,0.187c-0.078,0.061-0.197,0.184-0.354,0.364
					c-0.158,0.181-0.256,0.388-0.287,0.619c-0.032,0.231-0.029,0.393,0.009,0.485c0.036,0.091,0.109,0.175,0.208,0.252
					c0.101,0.076,0.239,0.13,0.413,0.16c0.174,0.031,0.316,0.034,0.421,0.011c0.107-0.022,0.204-0.057,0.287-0.103
					c0.085-0.046,0.158-0.114,0.222-0.206c0.063-0.092,0.105-0.229,0.127-0.413c0.02-0.184,0.01-0.375-0.027-0.573
					c-0.038-0.199-0.046-0.341-0.023-0.425s0.158-0.198,0.401-0.344c0.244-0.146,0.451-0.261,0.62-0.344
					c0.168-0.084,0.33-0.176,0.481-0.275c0.153-0.1,0.33-0.244,0.528-0.436c0.198-0.192,0.321-0.329,0.367-0.413
					c0.046-0.084,0.066-0.184,0.058-0.298c-0.009-0.115-0.027-0.222-0.058-0.321C83.728,69.585,83.561,69.352,83.258,68.984z
					 M80.782,73.099c-0.034,0.098-0.087,0.153-0.166,0.167c-0.076,0.014-0.15-0.001-0.229-0.043
					c-0.078-0.043-0.114-0.102-0.114-0.179c0-0.076,0.023-0.156,0.069-0.24c0.045-0.084,0.104-0.148,0.171-0.195
					c0.069-0.046,0.118-0.058,0.15-0.034c0.031,0.022,0.058,0.055,0.083,0.095c0.025,0.04,0.046,0.098,0.06,0.172
					C80.82,72.916,80.813,73.001,80.782,73.099z"/>
				<path fill="#FFFFFF" d="M87.067,69.371c-0.175-0.043-0.335-0.059-0.481-0.045c-0.146,0.014-0.287,0.029-0.424,0.049
					c-0.137,0.015-0.375,0.046-0.712,0.092c-0.335,0.046-0.541,0.078-0.613,0.098c-0.072,0.019-0.123,0.061-0.149,0.126
					c-0.025,0.064-0.038,0.14-0.031,0.227c0.006,0.086,0.043,0.143,0.115,0.172c0.071,0.028,0.118,0.047,0.141,0.055
					c0.022,0.008,0.244-0.027,0.665-0.104c0.421-0.077,0.711-0.107,0.872-0.092c0.16,0.015,0.217,0.084,0.172,0.207
					c-0.046,0.122-0.184,0.347-0.413,0.676c-0.23,0.329-0.381,0.551-0.458,0.665s-0.18,0.291-0.31,0.527
					c-0.128,0.237-0.229,0.451-0.298,0.643c-0.069,0.191-0.101,0.336-0.093,0.436c0.01,0.1,0.023,0.188,0.05,0.265
					c0.026,0.076,0.074,0.117,0.148,0.125c0.075,0.009,0.138-0.014,0.19-0.065c0.05-0.052,0.083-0.109,0.091-0.172
					c0.009-0.063,0.035-0.164,0.072-0.301c0.037-0.139,0.313-0.608,0.826-1.411c0.515-0.803,0.782-1.276,0.813-1.422
					c0.032-0.146,0.056-0.229,0.07-0.252c0.015-0.023,0.022-0.101,0.022-0.232S87.242,69.416,87.067,69.371z"/>
			</g>
			<g>
				<path fill="#FFFFFF" d="M166.563,60.077c-0.591-1.558-1.666-2.899-2.833-3.842c-2.38-1.886-4.883-2.6-7.203-3.145
					c-2.349-0.492-4.598-0.697-6.768-0.858c-2.137-0.156-4.32-0.232-6.067-0.423c-1.914-0.274-3.989-0.555-4.891-1.054
					c-0.198-0.108-0.277-0.181-0.27-0.152c-0.003,0.033-0.031,0.08-0.04-0.063c-0.005-0.133,0.045-0.395,0.158-0.684
					c0.054-0.153,0.118-0.28,0.176-0.414l0.288-0.524c0.192-0.383,0.735-0.906,1.305-1.34c0.584-0.453,1.245-0.866,1.924-1.233
					c2.734-1.468,5.676-2.302,8.139-2.539c0.614-0.051,1.202-0.052,1.718,0.013l0.374,0.06l0.277,0.062l0.217,0.086l0.107,0.043
					l0.027,0.01c-0.035-0.019-0.052-0.027-0.064-0.033l0.03,0.014c0.087,0.036,0.172,0.079,0.252,0.133
					c0.654,0.413,1.088,1.28,1.188,2.082c0.117,0.814-0.081,1.575-0.464,2.073c-0.371,0.519-0.937,0.774-1.425,0.867
					c-0.496,0.099-0.901,0.051-1.173,0.032c-0.273-0.041-0.414-0.062-0.414-0.062c0.011-0.032,0.476,0.335,1.608,0.469
					c0.554,0.04,1.356-0.04,2.08-0.63c0.713-0.582,1.23-1.582,1.337-2.748c0.112-1.149-0.143-2.59-1.306-3.763
					c-0.145-0.145-0.303-0.278-0.478-0.4l-0.063-0.048c-0.046-0.026,0.06,0.025-0.111-0.064l-0.026-0.015l-0.101-0.056l-0.202-0.114
					c-0.406-0.192-0.805-0.329-1.161-0.425c-0.744-0.198-1.496-0.291-2.26-0.33c-3.046-0.1-6.281,0.532-9.706,1.896
					c-1.7,0.772-3.507,1.484-5.168,3.67l-0.431,0.651c-0.158,0.272-0.317,0.552-0.445,0.826c-0.264,0.559-0.511,1.197-0.612,2.006
					c-0.11,0.791,0.002,1.824,0.481,2.692c0.462,0.882,1.141,1.458,1.752,1.876c1.243,0.798,2.371,1.121,3.445,1.425
					c1.093,0.293,2.061,0.485,3.127,0.678c2.3,0.356,4.285,0.492,6.37,0.745c2.048,0.244,4.093,0.534,5.999,1.028
					c1.893,0.458,3.726,1.141,4.823,2.085c1.075,0.944,1.422,1.875,1.261,3.49l-0.015,0.146l-0.005,0.073l-0.004,0.037
					c0.001-0.011,0.001-0.006,0.001,0.001l-0.066,0.33l-0.096,0.267c-0.089,0.215-0.199,0.372-0.345,0.527
					c-0.278,0.306-0.807,0.646-1.569,0.877c-1.528,0.476-3.612,0.523-5.655,0.374c-2.066-0.152-4.185-0.496-6.282-0.924
					c-2.107-0.407-4.206-0.893-6.285-1.425c-1.047-0.276-2.091-0.551-3.125-0.823c-0.554-0.14-0.997-0.277-1.703-0.42l-1.564-0.313
					c-4.817-0.821-9.426,0.096-13.176,1.545c-3.754,1.457-6.987,2.953-10.154,4.02c-0.785,0.282-1.573,0.484-2.335,0.734
					c-0.786,0.179-1.556,0.353-2.306,0.523c-1.506,0.324-2.938,0.608-4.287,0.854c-2.701,0.487-5.069,0.828-7.026,0.997
					c-1.954,0.163-3.514,0.135-4.512-0.156c-0.502-0.141-0.833-0.395-0.954-0.638c-0.114-0.243-0.086-0.398-0.093-0.395
					c0.007-0.002-0.04,0.146,0.054,0.413c0.097,0.269,0.427,0.582,0.933,0.783c1.012,0.421,2.602,0.586,4.596,0.614
					c1.997,0.029,4.417-0.106,7.176-0.384c2.78-0.254,5.813-0.719,9.286-1.175c1.72-0.271,3.498-0.634,5.299-1.103
					c1.798-0.467,3.618-0.991,5.449-1.419c1.833-0.416,3.649-0.798,5.484-0.859c1.816-0.094,3.719,0.156,5.447,0.532l1.546,0.402
					c0.338,0.087,0.918,0.273,1.401,0.423c1.035,0.323,2.075,0.649,3.125,0.976c2.124,0.645,4.303,1.269,6.552,1.791
					c2.255,0.495,4.57,0.914,6.994,1.132c2.43,0.184,4.958,0.287,7.79-0.5c1.396-0.412,2.965-1.128,4.222-2.498
					c0.617-0.675,1.12-1.488,1.443-2.325l0.219-0.636l0.181-0.715l0.074-0.415l0.025-0.188l0.01-0.068l0.011-0.137l0.027-0.274
					C167.278,63.268,167.17,61.633,166.563,60.077z M153.137,44.044L153.137,44.044C153.142,44.046,153.145,44.048,153.137,44.044z"
					/>
				<path fill="#FFFFFF" d="M58.501,38.132c0.218,0.159,0.497,0.344,0.849,0.346c0.364,0.039,0.605-0.108,0.842-0.239
					c0.335-0.306,0.438-0.622,0.526-0.898l0.105-0.321l-0.045-0.064c-0.072-0.098-0.144-0.181-0.221-0.263
					c-0.065-0.065-0.144-0.121-0.215-0.16c-0.042-0.021-0.111-0.034-0.18-0.036c0.011-0.017,0.023-0.04,0.035-0.054
					c0.123-0.108,0.168-0.061,0.243-0.083c0.069,0.013,0.109-0.026,0.232-0.022l0.063-0.011h0.05
					c0.095,0.001,0.289-0.008,0.265,0.009l0.305,0.053c0.149,0.043,0.329,0.089,0.519,0.151c0.388,0.13,0.851,0.305,1.404,0.432
					c0.277,0.06,0.574,0.112,0.897,0.104c0.313-0.005,0.647-0.023,0.95-0.149c0.296-0.121,0.58-0.262,0.772-0.489
					c0.218-0.188,0.345-0.458,0.46-0.692c-0.559,0.032-1.005-0.002-1.329-0.166c-0.322-0.145-0.554-0.377-0.857-0.626
					c-0.303-0.25-0.646-0.549-1.091-0.835c-0.229-0.143-0.476-0.287-0.764-0.405c-0.289-0.116-0.591-0.231-1.049-0.283
					c-0.253-0.037-0.295-0.024-0.432-0.034l-0.089-0.003h-0.043l-0.126,0.004l-0.018,0.002L60.526,33.4l-0.274,0.041
					c-0.35,0.037-0.741,0.171-1.107,0.356c-0.371,0.22-0.718,0.499-0.97,0.871c-0.253,0.361-0.404,0.772-0.463,1.174
					c-0.06,0.4-0.023,0.796,0.084,1.175C57.932,37.4,58.074,37.772,58.501,38.132z M60.058,37.048
					c-0.024,0.012-0.06-0.019-0.066-0.002c-0.023,0.019-0.05,0.019-0.067,0.01l-0.057,0.155l0.035-0.226
					c0.009-0.001,0.024,0.001,0.031,0c0.098-0.017,0.19-0.004,0.179,0.032C60.117,37.021,60.081,37.048,60.058,37.048z
					 M59.792,36.781c-0.011,0.027-0.021,0.05-0.016,0.072c-0.008,0.057-0.074,0.014-0.11,0.024c0.011,0.012,0.015,0.028,0.02,0.043
					c-0.091,0.023-0.166,0.029-0.201,0.001C59.462,36.822,59.654,36.778,59.792,36.781z"/>
				<path fill="#FFFFFF" d="M134.03,59.923c-0.596-0.146-1.167-0.313-1.717-0.533c-0.544-0.229-1.062-0.504-1.555-0.81
					c-0.493-0.305-0.965-0.638-1.417-0.997c-0.444-0.372-0.871-0.764-1.278-1.176c-0.4-0.427-0.804-0.842-1.188-1.281
					c-0.768-0.885-1.475-1.835-2.152-2.822l-1.403-2.042l-1.769,2.304c-2.657,3.461-7.744,4.619-12.351,4.277
					c-2.293-0.184-4.636-0.792-6.161-1.839c-0.762-0.506-1.219-1.065-1.347-1.523c-0.163-0.44-0.168-1.053,0.195-1.896
					c0.178-0.408,0.413-0.852,0.701-1.294c0.332-0.478,0.544-0.782,1.045-1.351c0.736-0.874,1.513-1.621,2.402-2.216
					c1.746-1.195,3.885-1.75,6.137-1.508c1.123,0.105,2.266,0.407,3.331,0.898c1.055,0.501,2.084,1.136,2.89,1.965
					c0.779,0.828,1.383,1.838,1.218,2.86c-0.166,1.051-1.312,1.96-2.544,2.508c0.681-0.038,1.377-0.184,2.048-0.476
					c0.675-0.288,1.322-0.816,1.709-1.574c0.4-0.756,0.457-1.661,0.324-2.47c-0.153-0.813-0.475-1.551-0.867-2.228
					c-1.616-2.692-4.311-4.448-7.318-5.35c-3.025-0.88-6.565-0.521-9.458,1.052c-1.438,0.773-2.739,1.788-3.821,2.9
					c-0.428,0.411-1.085,1.137-1.555,1.744c-0.494,0.653-0.976,1.358-1.366,2.173c-0.735,1.463-1.196,3.493-0.735,5.503
					c-0.358,0.354-0.738,0.707-1.165,1.061c-1.401,1.16-2.873,1.821-4.419,1.982c-1.546,0.16-2.439-1.383-2.685-4.633
					c-0.247-3.249-0.786-5.558-1.621-6.926c-0.833-1.368-1.788-2.174-2.859-2.418c-1.076-0.243-2.025-0.237-2.846,0.017
					c-0.821,0.255-1.579,0.607-2.269,1.059s-1.803,1.424-3.336,2.917c-1.535,1.493-2.831,2.945-3.891,4.359
					c-1.062,1.413-0.964,0.587,0.287-2.479c1.252-3.064,2.155-5.264,2.706-6.595c0.553-1.332,0.261-2.202-0.874-2.614
					c-1.136-0.409-2.05-0.423-2.744-0.04c-0.695,0.384-1.183,0.797-1.464,1.241c-0.281,0.443-0.568,0.931-0.861,1.46
					c-0.292,0.531-1.818,2.426-4.581,5.684c-1.451,1.712-3.128,3.814-4.166,5.187c0.038-1.507,0.208-3.047,0.391-4.52
					c0.232-1.616,0.488-3.15,0.758-4.458c0.56-2.613,1.072-4.352,1.072-4.352l-0.524-0.261c0,0-0.272,0.371-0.746,1.023
					c-0.473,0.659-1.065,1.642-1.757,2.847c-0.685,1.206-1.448,2.646-2.125,4.268c-0.708,1.614-1.306,3.411-1.752,5.319
					c-0.42,1.892-1.002,3.95-0.661,6.112c0.189,1.072,0.627,2.147,1.27,3.073c0.65,0.94,1.527,1.691,2.42,2.162
					c0.909,0.449,1.787,0.636,2.521,0.634c0.368-0.018,0.704-0.018,0.999-0.065c0.301-0.065,0.567-0.141,0.8-0.204
					c0.464-0.139,0.799-0.342,1.026-0.466c0.22-0.135,0.338-0.207,0.338-0.207l-0.003-0.587c0,0.001-0.46-0.346-1.095-0.829
					c-0.309-0.261-0.659-0.544-0.958-0.891c-0.303-0.34-0.534-0.728-0.703-1.081c-0.143-0.39-0.237-0.749-0.326-1.167
					c-0.061-0.445-0.152-0.921-0.278-1.503c-0.25-1.146-0.738-2.709-0.691-4.359c1.907-2.069,5.607-6.358,6.64-7.129
					c1.144-0.855,1.376-0.126,0.694,2.188c-0.68,2.313-1.182,4.505-1.503,6.574c-0.319,2.07-0.527,3.604-0.622,4.6
					c-0.094,0.997,0.126,1.821,0.662,2.473c0.534,0.651,1.184,0.817,1.95,0.498c0.768-0.318,1.598-1.146,2.493-2.481
					c0.892-1.335,2.051-2.968,3.475-4.897c1.421-1.932,3.019-3.521,4.789-4.772c1.77-1.252,2.93-1.867,3.478-1.85
					c0.546,0.02,1.02,1.478,1.417,4.375c0.394,2.899,0.999,4.99,1.808,6.275c0.812,1.283,2.026,1.86,3.642,1.73
					c1.617-0.132,3.469-1.302,5.558-3.512c1.069-1.132,1.939-2.104,2.624-2.926c0.709,1.913,2.077,3.311,3.418,4.234
					c1.485,1.004,3.032,1.589,4.566,2.008c1.536,0.418,3.08,0.584,4.611,0.645c3.062,0.078,6.119-0.431,8.983-1.664
					c2.15-0.914,4.223-2.361,5.736-4.282c0.353,0.302,0.702,0.604,1.069,0.89c1.043,0.828,2.205,1.537,3.432,2.109
					c0.62,0.279,1.25,0.524,1.897,0.721c0.659,0.173,1.322,0.296,1.987,0.361c0.669,0.053,1.332,0.054,1.98-0.03
					c0.651-0.09,1.277-0.238,1.878-0.446C135.24,60.114,134.626,60.054,134.03,59.923z"/>
				<path fill="#FFFFFF" d="M52.08,59.861c-0.025-1.999-0.055-4.128-0.256-6.405c-0.11-1.146-0.238-2.312-0.58-3.615
					c-0.11-0.351-0.153-0.614-0.367-1.097c-0.085-0.198-0.206-0.476-0.28-0.603l-0.215-0.377c-0.175-0.267-0.206-0.301-0.388-0.503
					c-0.157-0.16-0.383-0.382-0.815-0.58c-0.428-0.216-1.197-0.273-1.708-0.058c-0.282,0.102-0.413,0.193-0.607,0.323
					c-0.139,0.104-0.237,0.195-0.347,0.304c-0.598,0.692-0.667,1.016-0.848,1.37c-0.55,1.313-0.866,2.382-1.287,3.51
					c-0.403,1.108-0.836,2.195-1.33,3.251c-0.986,2.104-2.231,4.094-3.845,5.634c-1.605,1.533-3.582,2.601-5.774,3.036
					c-5.006,0.889-10.443,0.92-15.244-0.745c-4.823-1.565-8.883-5.057-10.814-9.688c-2.056-4.574-2.033-10.04-0.465-14.953
					c0.8-2.474,1.935-4.816,3.276-6.986l0.576-0.882l0.287-0.44l0.032-0.05l0.031-0.043l0.149-0.202
					c0.4-0.539,0.804-1.068,1.216-1.587c0.824-1.04,1.676-2.039,2.555-2.991c3.514-3.769,7.473-6.921,11.711-8.219
					c4.192-1.312,8.629-0.515,11.884,1.577c0.772,0.501,1.362,1.092,1.701,1.696c0.34,0.605,0.42,1.242,0.297,1.964
					c-0.278,1.464-1.406,2.927-2.577,4.076c-2.42,2.323-5.104,3.884-7.349,4.962c-2.271,1.06-4.171,1.677-5.5,1.952
					c-1.329,0.285-2.066,0.295-2.066,0.295s0.726,0.103,2.109,0.021c1.375-0.089,3.416-0.36,5.888-1.183
					c2.459-0.83,5.438-2.029,8.409-4.363c1.436-1.194,3.031-2.632,3.836-5.054c0.39-1.198,0.349-2.728-0.239-4.01
					c-0.577-1.281-1.511-2.287-2.502-3.067c-2.047-1.56-4.156-2.562-6.863-3.218c-2.587-0.592-5.438-0.545-8.167,0.116
					c-5.502,1.351-10.293,4.81-14.307,8.875c-1.012,1.02-1.987,2.086-2.927,3.188c-0.47,0.551-0.934,1.11-1.385,1.682l-0.169,0.213
					l-0.086,0.107L6.57,27.317l-0.304,0.43l-0.608,0.859c-1.74,2.531-3.166,5.325-4.148,8.309
					C-0.454,42.85-0.717,49.822,2.009,55.97c1.319,3.063,3.406,5.794,5.901,7.978c2.502,2.193,5.477,3.729,8.513,4.72
					c3.047,1,6.195,1.349,9.225,1.349c3.055-0.01,5.955-0.401,8.837-1.003c3.164-0.689,6.042-2.413,8.116-4.632
					c2.098-2.208,3.479-4.753,4.504-7.22c0.421-1.02,0.774-2.029,1.097-3.024c0.299,1.986,0.468,3.967,0.618,5.873
					c0.042,0.503,0.082,1,0.123,1.489l0.007,0.093l0.004,0.047c0.002,0.039-0.003-0.169,0-0.06l0.007,0.181l0.015,0.359l0.032,0.714
					c0.014,0.923,0.042,1.732-0.009,2.6c-0.14,3.399-0.932,6.325-1.758,8.688c-0.848,2.36-1.723,4.171-2.3,5.41
					c-0.592,1.238-0.907,1.898-0.907,1.898s0.458-0.572,1.264-1.686s2-2.748,3.24-5.045c1.263-2.274,2.494-5.29,3.136-8.964
					c0.168-0.896,0.291-1.92,0.359-2.881l0.041-0.712l0.022-0.36l0.009-0.182l-0.003-0.283
					C52.096,60.839,52.088,60.353,52.08,59.861z"/>
			</g>
		</g>
		<g>
			<path fill="#FFFFFF" d="M169.833,72.599h-0.559V69.81h-0.948v-0.48h2.463v0.48h-0.956V72.599z M172.555,72.599l-0.912-2.536
				h-0.035l0.026,0.586v1.95h-0.539v-3.27h0.848l0.89,2.535l0.919-2.535h0.817v3.27h-0.576v-1.904l0.027-0.622h-0.035l-0.958,2.526
				H172.555z"/>
		</g>
	</g>
	<g>
		<g>
			<path fill="#FFFFFF" d="M104.496,76.104c0.639,0.055,1.058,0.098,1.258,0.129c0.199,0.03,0.551,0.067,1.055,0.11
				c0.503,0.043,0.838,0.131,1.003,0.263c0.167,0.132,0.172,0.255,0.02,0.368c-0.153,0.113-0.358,0.17-0.613,0.17
				c-0.256,0-0.492-0.012-0.713-0.036c-0.222-0.025-0.392-0.04-0.512-0.047c-0.12-0.006-0.453-0.027-0.998-0.064
				c-0.548-0.036-0.921-0.052-1.119-0.045c-0.2,0.006-0.355,0.07-0.466,0.192c-0.11,0.123-0.253,0.279-0.424,0.47
				c-0.173,0.19-0.404,0.485-0.695,0.885c-0.292,0.398-0.588,0.847-0.889,1.344c-0.301,0.498-0.585,0.972-0.853,1.423
				c-0.266,0.451-0.4,0.803-0.4,1.055s0.061,0.423,0.18,0.512c0.12,0.089,0.274,0.093,0.466,0.014
				c0.189-0.08,0.338-0.134,0.446-0.161c0.106-0.028,0.261-0.098,0.46-0.207c0.199-0.111,0.413-0.252,0.642-0.424
				c0.226-0.172,0.214-0.124-0.033,0.143c-0.249,0.267-0.438,0.493-0.566,0.677c-0.129,0.185-0.371,0.419-0.728,0.704
				c-0.355,0.286-0.654,0.435-0.894,0.447s-0.454-0.044-0.641-0.171c-0.187-0.125-0.301-0.323-0.341-0.594
				c-0.039-0.27-0.061-0.513-0.061-0.728s0.05-0.451,0.148-0.709c0.098-0.258,0.228-0.526,0.388-0.806
				c0.159-0.279,0.459-0.757,0.901-1.433c0.442-0.675,0.854-1.313,1.235-1.91c0.381-0.6,0.409-0.891,0.087-0.876
				c-0.323,0.016-0.789,0.028-1.4,0.037c-0.611,0.01-1.069,0.025-1.376,0.046c-0.307,0.022-0.562,0.079-0.761,0.171
				s-0.405,0.086-0.617-0.019c-0.211-0.104-0.334-0.188-0.367-0.254c-0.035-0.063-0.037-0.108-0.011-0.133
				c0.028-0.024,0.135-0.109,0.319-0.254c0.184-0.144,0.374-0.265,0.576-0.363c0.198-0.099,0.882-0.138,2.047-0.119
				c1.168,0.018,1.871,0.033,2.114,0.046c0.242,0.012,0.499,0.026,0.769,0.041C103.403,76.013,103.857,76.048,104.496,76.104z"/>
			<path fill="#FFFFFF" d="M107.913,78.848c0.142-0.037,0.297-0.043,0.465-0.019c0.169,0.024,0.304,0.077,0.405,0.156
				c0.103,0.08,0.199,0.237,0.29,0.47c0.093,0.233,0.051,0.391-0.123,0.471c-0.176,0.079-0.334,0.052-0.476-0.084
				c-0.141-0.135-0.288-0.162-0.442-0.083c-0.152,0.08-0.305,0.162-0.455,0.244c-0.15,0.083-0.336,0.214-0.557,0.392
				c-0.222,0.179-0.449,0.405-0.683,0.682s-0.36,0.453-0.386,0.529c-0.024,0.077,0.035,0.066,0.179-0.032
				c0.145-0.098,0.365-0.247,0.663-0.446c0.299-0.199,0.673-0.403,1.124-0.612s0.737-0.29,0.856-0.244
				c0.12,0.046,0.223,0.131,0.31,0.253c0.085,0.123,0.135,0.229,0.146,0.318c0.013,0.089-0.002,0.159-0.042,0.211
				c-0.04,0.054-0.086,0.171-0.138,0.355c-0.053,0.184-0.048,0.362,0.013,0.534c0.062,0.172,0.142,0.29,0.236,0.354
				s0.226,0.082,0.391,0.056c0.167-0.028,0.37-0.154,0.612-0.379c0.243-0.224,0.232-0.171-0.032,0.157
				c-0.264,0.329-0.472,0.538-0.625,0.627s-0.274,0.132-0.36,0.128c-0.086-0.002-0.198-0.03-0.335-0.083
				c-0.139-0.052-0.27-0.133-0.393-0.244c-0.122-0.11-0.22-0.245-0.29-0.405c-0.07-0.159-0.117-0.277-0.142-0.354
				c-0.025-0.077-0.083-0.162-0.171-0.254c-0.089-0.092-0.197-0.111-0.328-0.06c-0.127,0.052-0.354,0.195-0.677,0.429
				c-0.321,0.232-0.622,0.425-0.901,0.574c-0.279,0.151-0.529,0.256-0.751,0.313c-0.222,0.059-0.363,0.079-0.428,0.061
				c-0.065-0.019-0.136-0.088-0.213-0.208c-0.076-0.119-0.12-0.249-0.133-0.391s0.008-0.284,0.06-0.428
				c0.053-0.145,0.249-0.434,0.589-0.866c0.341-0.434,0.67-0.788,0.986-1.063c0.315-0.277,0.652-0.512,1.009-0.705
				C107.523,79.009,107.772,78.891,107.913,78.848z"/>
			<path fill="#FFFFFF" d="M112.188,78.912c0.245-0.123,0.49-0.202,0.736-0.239c0.245-0.037,0.395,0.009,0.446,0.138
				c0.051,0.13,0.027,0.255-0.073,0.378c-0.102,0.122-0.24,0.192-0.414,0.207c-0.176,0.016-0.364,0.142-0.567,0.378
				c-0.202,0.236-0.319,0.516-0.35,0.838s-0.023,0.545,0.022,0.668c0.047,0.122,0.097,0.362,0.153,0.718
				c0.054,0.356,0.018,0.662-0.111,0.916c-0.13,0.255-0.267,0.441-0.415,0.558c-0.147,0.117-0.33,0.203-0.547,0.259
				c-0.219,0.054-0.404,0.082-0.558,0.082c-0.154,0-0.317-0.037-0.493-0.11c-0.175-0.074-0.282-0.226-0.321-0.456
				c-0.041-0.229,0.281-0.657,0.966-1.279c0.685-0.623,0.738-0.642,0.161-0.056c-0.576,0.587-0.802,0.949-0.677,1.091
				c0.126,0.142,0.276,0.179,0.452,0.111c0.175-0.068,0.313-0.158,0.413-0.272c0.103-0.113,0.177-0.252,0.226-0.414
				c0.05-0.163,0.071-0.313,0.065-0.452c-0.006-0.137-0.055-0.444-0.143-0.921c-0.089-0.475-0.089-0.833,0-1.072
				c0.088-0.239,0.221-0.446,0.396-0.622C111.73,79.185,111.941,79.035,112.188,78.912z"/>
			<path fill="#FFFFFF" d="M115.152,76.821c0.073-0.086,0.19-0.123,0.35-0.11c0.159,0.012,0.276,0.062,0.35,0.147
				c0.074,0.086,0.136,0.19,0.185,0.313c0.05,0.123,0.04,0.252-0.027,0.388c-0.068,0.135-0.133,0.312-0.193,0.528
				c-0.062,0.22-0.142,0.524-0.239,0.917c-0.099,0.394-0.092,0.614,0.018,0.663c0.111,0.049,0.301,0.099,0.572,0.147
				c0.27,0.05,0.701,0.068,1.293,0.056s0.561,0.03-0.096,0.129c-0.658,0.098-1.145,0.188-1.46,0.267
				c-0.317,0.08-0.525,0.137-0.627,0.171s-0.272,0.374-0.516,1.021c-0.242,0.648-0.402,1.079-0.479,1.294
				c-0.078,0.216-0.158,0.36-0.245,0.434c-0.085,0.073-0.196,0.129-0.331,0.165c-0.136,0.037-0.258,0.031-0.368-0.018
				c-0.11-0.05-0.109-0.249,0.005-0.599c0.112-0.351,0.269-0.765,0.465-1.243c0.195-0.479,0.304-0.777,0.323-0.894
				c0.017-0.116-0.062-0.16-0.241-0.129c-0.177,0.03-0.336,0.048-0.473,0.05c-0.139,0.004-0.207-0.082-0.203-0.258
				c0.002-0.175,0.114-0.317,0.336-0.428c0.221-0.11,0.417-0.167,0.589-0.17s0.326-0.243,0.461-0.719s0.215-0.792,0.239-0.949
				c0.024-0.156,0.065-0.369,0.119-0.64C115.015,77.085,115.078,76.907,115.152,76.821z"/>
			<path fill="#FFFFFF" d="M118.376,78.792c0.411-0.03,0.661,0.039,0.75,0.208s0.13,0.384,0.125,0.645
				c-0.007,0.261-0.13,0.481-0.368,0.663c-0.241,0.182-0.557,0.36-0.949,0.538c-0.11,0.043-0.211,0.066-0.3,0.069
				s-0.162,0-0.221-0.009c-0.059-0.01-0.104-0.019-0.138-0.028c-0.035-0.01-0.055-0.004-0.061,0.015
				c-0.11,0.178-0.168,0.355-0.171,0.533c-0.003,0.179,0.057,0.343,0.176,0.493s0.254,0.237,0.4,0.263
				c0.147,0.024,0.302,0.021,0.461-0.014c0.16-0.033,0.454-0.14,0.884-0.318c0.43-0.178,0.729-0.345,0.898-0.502
				c0.168-0.156,0.329-0.309,0.483-0.455c0.153-0.147,0.175-0.147,0.063,0c-0.11,0.146-0.247,0.325-0.408,0.533
				c-0.163,0.209-0.367,0.417-0.609,0.622c-0.242,0.206-0.439,0.363-0.594,0.475c-0.152,0.11-0.357,0.21-0.612,0.299
				c-0.255,0.09-0.505,0.117-0.75,0.083c-0.246-0.033-0.43-0.091-0.553-0.17c-0.122-0.08-0.235-0.176-0.341-0.286
				c-0.104-0.11-0.19-0.24-0.258-0.391s-0.103-0.356-0.105-0.617c-0.004-0.261,0.058-0.546,0.184-0.853s0.269-0.562,0.429-0.764
				c0.158-0.203,0.375-0.407,0.649-0.613C117.715,79.006,118.025,78.866,118.376,78.792z M118.385,79.621
				c-0.042-0.043-0.149-0.021-0.317,0.064s-0.291,0.183-0.369,0.29c-0.077,0.108-0.09,0.186-0.041,0.235
				c0.05,0.049,0.153,0.029,0.313-0.061c0.159-0.089,0.286-0.178,0.382-0.267C118.447,79.795,118.458,79.707,118.385,79.621z"/>
			<path fill="#FFFFFF" d="M125.031,76.821c0.074-0.086,0.191-0.123,0.352-0.11c0.159,0.012,0.275,0.062,0.349,0.147
				c0.074,0.086,0.135,0.19,0.186,0.313c0.049,0.123,0.039,0.252-0.029,0.388c-0.066,0.135-0.132,0.312-0.193,0.528
				c-0.061,0.22-0.14,0.524-0.237,0.917c-0.1,0.394-0.094,0.614,0.017,0.663c0.111,0.049,0.302,0.099,0.571,0.147
				c0.271,0.05,0.702,0.068,1.294,0.056c0.593-0.013,0.562,0.03-0.097,0.129c-0.656,0.098-1.144,0.188-1.46,0.267
				c-0.315,0.08-0.524,0.137-0.627,0.171c-0.101,0.034-0.272,0.374-0.515,1.021c-0.242,0.648-0.402,1.079-0.479,1.294
				c-0.076,0.216-0.157,0.36-0.243,0.434s-0.196,0.129-0.331,0.165c-0.136,0.037-0.258,0.031-0.369-0.018
				c-0.11-0.05-0.108-0.249,0.005-0.599c0.112-0.351,0.269-0.765,0.466-1.243c0.196-0.479,0.303-0.777,0.321-0.894
				s-0.062-0.16-0.239-0.129c-0.178,0.03-0.337,0.048-0.474,0.05c-0.139,0.004-0.207-0.082-0.203-0.258
				c0.003-0.175,0.115-0.317,0.337-0.428c0.221-0.11,0.417-0.167,0.589-0.17c0.171-0.003,0.324-0.243,0.46-0.719
				c0.135-0.476,0.216-0.792,0.24-0.949c0.024-0.156,0.064-0.369,0.118-0.64C124.894,77.085,124.958,76.907,125.031,76.821z"/>
			<path fill="#FFFFFF" d="M129.241,73.57c0.319-0.073,0.579-0.034,0.782,0.12c0.202,0.153,0.163,0.424-0.119,0.811
				s-0.678,1.201-1.188,2.444c-0.509,1.244-0.841,2.127-0.995,2.648c-0.152,0.521-0.165,0.712-0.037,0.57
				c0.13-0.141,0.257-0.268,0.383-0.382c0.126-0.113,0.266-0.229,0.419-0.35c0.154-0.12,0.294-0.208,0.419-0.263
				c0.126-0.055,0.266-0.097,0.42-0.124c0.152-0.027,0.293-0.006,0.418,0.064c0.126,0.07,0.225,0.161,0.296,0.271
				c0.07,0.11,0.112,0.31,0.128,0.599c0.017,0.289-0.002,0.591-0.05,0.907c-0.05,0.316-0.053,0.554-0.009,0.714
				c0.042,0.159,0.121,0.301,0.233,0.423c0.114,0.123,0.31,0.152,0.585,0.088c0.277-0.064,0.491-0.178,0.646-0.341
				c0.152-0.162,0.188-0.151,0.105,0.032c-0.082,0.185-0.205,0.35-0.369,0.493c-0.162,0.145-0.359,0.271-0.593,0.377
				c-0.234,0.108-0.424,0.163-0.571,0.166s-0.298-0.058-0.451-0.185c-0.154-0.125-0.258-0.307-0.314-0.543
				c-0.054-0.236-0.065-0.603-0.036-1.101c0.032-0.497-0.004-0.793-0.104-0.889c-0.103-0.095-0.364,0.015-0.783,0.327
				c-0.421,0.313-0.738,0.666-0.954,1.06c-0.214,0.393-0.374,0.726-0.479,0.999c-0.104,0.273-0.234,0.388-0.387,0.345
				c-0.154-0.042-0.273-0.113-0.359-0.212c-0.086-0.098-0.128-0.237-0.128-0.418c0-0.182,0.184-0.884,0.552-2.104
				c0.368-1.223,0.788-2.417,1.263-3.583c0.472-1.167,0.749-1.876,0.828-2.128C128.87,74.157,129.021,73.877,129.241,73.57z"/>
			<path fill="#FFFFFF" d="M133.671,78.792c0.411-0.03,0.662,0.039,0.75,0.208c0.089,0.169,0.131,0.384,0.125,0.645
				s-0.129,0.481-0.368,0.663s-0.556,0.36-0.949,0.538c-0.109,0.043-0.21,0.066-0.3,0.069c-0.089,0.003-0.162,0-0.221-0.009
				c-0.058-0.01-0.104-0.019-0.138-0.028s-0.054-0.004-0.06,0.015c-0.111,0.178-0.167,0.355-0.171,0.533
				c-0.003,0.179,0.055,0.343,0.176,0.493c0.119,0.15,0.252,0.237,0.398,0.263c0.149,0.024,0.304,0.021,0.463-0.014
				c0.159-0.033,0.454-0.14,0.884-0.318c0.43-0.178,0.728-0.345,0.896-0.502c0.17-0.156,0.332-0.309,0.484-0.455
				c0.154-0.147,0.175-0.147,0.065,0c-0.111,0.146-0.248,0.325-0.41,0.533c-0.163,0.209-0.366,0.417-0.608,0.622
				c-0.242,0.206-0.44,0.363-0.595,0.475c-0.152,0.11-0.357,0.21-0.611,0.299c-0.255,0.09-0.506,0.117-0.751,0.083
				c-0.245-0.033-0.431-0.091-0.553-0.17c-0.123-0.08-0.237-0.176-0.341-0.286c-0.104-0.11-0.19-0.24-0.258-0.391
				s-0.103-0.356-0.105-0.617s0.058-0.546,0.185-0.853c0.125-0.307,0.269-0.562,0.428-0.764c0.16-0.203,0.376-0.407,0.649-0.613
				C133.009,79.006,133.321,78.866,133.671,78.792z M133.68,79.621c-0.042-0.043-0.148-0.021-0.317,0.064s-0.292,0.183-0.368,0.29
				c-0.077,0.108-0.091,0.186-0.042,0.235c0.049,0.049,0.154,0.029,0.314-0.061c0.159-0.089,0.286-0.178,0.382-0.267
				C133.743,79.795,133.754,79.707,133.68,79.621z"/>
			<path fill="#FFFFFF" d="M141.359,73.57c0.318-0.073,0.581-0.034,0.782,0.12c0.204,0.153,0.163,0.424-0.119,0.811
				c-0.283,0.387-0.68,1.201-1.188,2.444c-0.51,1.244-0.841,2.127-0.994,2.648c-0.154,0.521-0.167,0.712-0.037,0.57
				c0.129-0.141,0.256-0.268,0.382-0.382c0.126-0.113,0.266-0.229,0.419-0.35s0.294-0.208,0.42-0.263
				c0.125-0.055,0.266-0.097,0.418-0.124c0.154-0.027,0.293-0.006,0.419,0.064s0.225,0.161,0.295,0.271s0.114,0.31,0.129,0.599
				c0.016,0.289,0,0.591-0.05,0.907c-0.049,0.316-0.053,0.554-0.01,0.714c0.043,0.159,0.121,0.301,0.235,0.423
				c0.113,0.123,0.308,0.152,0.585,0.088c0.275-0.064,0.49-0.178,0.644-0.341c0.154-0.162,0.189-0.151,0.106,0.032
				c-0.083,0.185-0.206,0.35-0.369,0.493c-0.161,0.145-0.36,0.271-0.593,0.377c-0.233,0.108-0.425,0.163-0.572,0.166
				c-0.146,0.003-0.297-0.058-0.451-0.185c-0.152-0.125-0.258-0.307-0.312-0.543c-0.057-0.236-0.068-0.603-0.037-1.101
				c0.029-0.497-0.005-0.793-0.106-0.889c-0.102-0.095-0.362,0.015-0.784,0.327c-0.42,0.313-0.737,0.666-0.952,1.06
				c-0.215,0.393-0.375,0.726-0.479,0.999c-0.105,0.273-0.233,0.388-0.388,0.345c-0.153-0.042-0.272-0.113-0.358-0.212
				c-0.086-0.098-0.129-0.237-0.129-0.418c0-0.182,0.184-0.884,0.553-2.104c0.368-1.223,0.789-2.417,1.261-3.583
				c0.474-1.167,0.749-1.876,0.83-2.128C140.987,74.157,141.138,73.877,141.359,73.57z"/>
			<path fill="#FFFFFF" d="M145.162,78.756c0.134-0.031,0.291-0.021,0.466,0.027s0.205,0.228,0.092,0.534
				c-0.114,0.307-0.238,0.706-0.373,1.197s-0.263,0.891-0.382,1.197s-0.254,0.573-0.401,0.797s-0.288,0.345-0.423,0.363
				c-0.136,0.019-0.229,0.014-0.281-0.014s-0.057-0.17-0.014-0.429c0.043-0.258,0.133-0.651,0.271-1.183
				c0.138-0.531,0.27-0.993,0.392-1.387c0.123-0.393,0.124-0.594,0.004-0.603c-0.12-0.01-0.073-0.088,0.14-0.235
				C144.863,78.875,145.034,78.786,145.162,78.756z M146.636,75.965c0.135,0.11,0.216,0.353,0.244,0.723
				c0.027,0.372,0.155,0.734,0.382,1.087c0.228,0.354,0.495,0.635,0.802,0.843c0.307,0.209,0.588,0.356,0.843,0.442
				s0.247,0.106-0.023,0.06c-0.271-0.046-0.539-0.153-0.806-0.322s-0.555-0.42-0.86-0.755c-0.308-0.334-0.532-0.58-0.672-0.737
				c-0.143-0.156-0.242-0.244-0.3-0.263c-0.059-0.019-0.107-0.031-0.148-0.041c-0.039-0.009-0.131-0.07-0.275-0.185
				c-0.146-0.112-0.197-0.253-0.156-0.419c0.039-0.165,0.094-0.288,0.159-0.368c0.069-0.08,0.188-0.14,0.356-0.179
				C146.349,75.81,146.501,75.849,146.636,75.965z"/>
			<path fill="#FFFFFF" d="M148.229,78.912c0.245-0.123,0.491-0.202,0.737-0.239c0.245-0.037,0.394,0.009,0.445,0.138
				c0.054,0.13,0.028,0.255-0.073,0.378c-0.101,0.122-0.24,0.192-0.414,0.207c-0.175,0.016-0.364,0.142-0.566,0.378
				s-0.318,0.516-0.351,0.838c-0.03,0.322-0.022,0.545,0.023,0.668c0.046,0.122,0.097,0.362,0.151,0.718
				c0.057,0.356,0.02,0.662-0.11,0.916c-0.128,0.255-0.267,0.441-0.414,0.558c-0.146,0.117-0.329,0.203-0.549,0.259
				c-0.218,0.054-0.402,0.082-0.556,0.082c-0.154,0-0.318-0.037-0.493-0.11c-0.175-0.074-0.282-0.226-0.322-0.456
				c-0.039-0.229,0.282-0.657,0.967-1.279c0.686-0.623,0.738-0.642,0.161-0.056c-0.577,0.587-0.803,0.949-0.677,1.091
				c0.125,0.142,0.276,0.179,0.452,0.111c0.174-0.068,0.313-0.158,0.413-0.272c0.102-0.113,0.178-0.252,0.227-0.414
				c0.049-0.163,0.07-0.313,0.064-0.452c-0.007-0.137-0.053-0.444-0.144-0.921c-0.09-0.475-0.09-0.833,0-1.072
				c0.091-0.239,0.222-0.446,0.396-0.622C147.773,79.185,147.983,79.035,148.229,78.912z"/>
			<path fill="#FFFFFF" d="M151.195,76.821c0.073-0.086,0.189-0.123,0.35-0.11c0.159,0.012,0.276,0.062,0.35,0.147
				c0.074,0.086,0.135,0.19,0.185,0.313c0.049,0.123,0.04,0.252-0.028,0.388c-0.066,0.135-0.131,0.312-0.192,0.528
				c-0.062,0.22-0.142,0.524-0.24,0.917c-0.099,0.394-0.092,0.614,0.019,0.663c0.111,0.049,0.302,0.099,0.571,0.147
				c0.27,0.05,0.701,0.068,1.294,0.056s0.561,0.03-0.097,0.129c-0.657,0.098-1.144,0.188-1.46,0.267
				c-0.316,0.08-0.524,0.137-0.626,0.171s-0.273,0.374-0.516,1.021c-0.243,0.648-0.402,1.079-0.479,1.294
				c-0.077,0.216-0.158,0.36-0.244,0.434s-0.196,0.129-0.331,0.165c-0.136,0.037-0.258,0.031-0.369-0.018
				c-0.11-0.05-0.109-0.249,0.004-0.599c0.114-0.351,0.269-0.765,0.466-1.243c0.196-0.479,0.304-0.777,0.321-0.894
				c0.019-0.116-0.061-0.16-0.238-0.129c-0.18,0.03-0.337,0.048-0.475,0.05c-0.139,0.004-0.206-0.082-0.202-0.258
				c0.002-0.175,0.114-0.317,0.336-0.428c0.221-0.11,0.417-0.167,0.589-0.17s0.325-0.243,0.461-0.719
				c0.135-0.476,0.215-0.792,0.239-0.949c0.024-0.156,0.064-0.369,0.12-0.64C151.057,77.085,151.121,76.907,151.195,76.821z"/>
			<path fill="#FFFFFF" d="M153.654,79.271c0.116-0.111,0.259-0.182,0.429-0.212c0.168-0.031,0.308-0.021,0.418,0.027
				s0.204,0.137,0.281,0.263c0.076,0.126,0.269,0.186,0.575,0.18c0.308-0.007,0.689-0.005,1.147,0.005
				c0.456,0.009,0.359,0.022-0.291,0.041c-0.651,0.019-1.021,0.045-1.108,0.078c-0.09,0.034-0.127,0.143-0.11,0.327
				c0.014,0.184,0.026,0.379,0.036,0.585s0.011,0.435,0.003,0.686c-0.004,0.252-0.023,0.439-0.054,0.562
				c-0.031,0.123-0.077,0.253-0.139,0.387c-0.062,0.136-0.153,0.279-0.271,0.43c-0.119,0.149-0.268,0.29-0.442,0.418
				c-0.175,0.129-0.336,0.227-0.482,0.29c-0.148,0.065-0.308,0.068-0.479,0.01c-0.173-0.058-0.312-0.15-0.419-0.276
				c-0.108-0.126-0.194-0.257-0.258-0.392c-0.064-0.135-0.093-0.371-0.084-0.709c0.011-0.338,0.048-0.609,0.11-0.814
				c0.065-0.206,0.166-0.421,0.3-0.646c0.135-0.224,0.176-0.328,0.12-0.313c-0.055,0.015-0.069,0.007-0.041-0.023
				c0.026-0.03,0.134-0.163,0.317-0.396C153.396,79.544,153.544,79.376,153.654,79.271z M154.114,80.718
				c-0.135-0.166-0.304-0.12-0.506,0.138c-0.203,0.258-0.324,0.531-0.364,0.819c-0.04,0.289-0.024,0.491,0.045,0.608
				c0.071,0.116,0.146,0.184,0.222,0.202c0.077,0.019,0.186-0.032,0.327-0.151c0.142-0.12,0.257-0.38,0.346-0.779
				C154.271,81.156,154.248,80.877,154.114,80.718z"/>
			<path fill="#FFFFFF" d="M156.261,80.091c0.221-0.854,0.434-1.271,0.639-1.253c0.206,0.019,0.361,0.111,0.466,0.277
				c0.104,0.165,0.094,0.37-0.032,0.611c-0.126,0.243-0.138,0.357-0.037,0.341c0.103-0.015,0.235-0.076,0.401-0.184
				c0.165-0.107,0.323-0.193,0.475-0.258c0.149-0.064,0.271-0.106,0.363-0.124c0.093-0.019,0.268,0.012,0.529,0.092
				c0.261,0.079,0.509,0.191,0.742,0.336s0.541,0.156,0.924,0.036c0.385-0.119,0.344-0.079-0.123,0.12
				c-0.468,0.2-0.945,0.294-1.432,0.281c-0.488-0.013-0.865,0.046-1.134,0.175c-0.267,0.129-0.492,0.271-0.677,0.429
				c-0.184,0.156-0.354,0.414-0.512,0.773c-0.155,0.358-0.275,0.662-0.359,0.907c-0.082,0.245-0.156,0.446-0.221,0.604
				c-0.063,0.156-0.196,0.239-0.395,0.248c-0.2,0.01-0.331-0.063-0.396-0.216c-0.065-0.154-0.08-0.253-0.046-0.3
				c0.033-0.046,0.125-0.327,0.275-0.843C155.863,81.629,156.045,80.944,156.261,80.091z"/>
			<path fill="#FFFFFF" d="M163.204,79.52c0.117-0.122,0.255-0.162,0.414-0.119s0.274,0.113,0.342,0.212
				c0.067,0.098,0.09,0.199,0.068,0.304s-0.025,0.296-0.014,0.575c0.013,0.28-0.011,0.681-0.069,1.202s-0.115,0.958-0.17,1.308
				s-0.181,0.754-0.378,1.212c-0.196,0.457-0.454,0.887-0.773,1.289c-0.32,0.402-0.695,0.752-1.128,1.05s-0.818,0.519-1.156,0.663
				c-0.337,0.145-0.604,0.231-0.802,0.263c-0.195,0.03-0.387,0.03-0.57,0c-0.185-0.031-0.344-0.165-0.479-0.401
				c-0.136-0.236-0.07-0.58,0.192-1.031c0.265-0.451,0.31-0.475,0.135-0.069c-0.176,0.405-0.074,0.632,0.303,0.677
				c0.378,0.047,0.7-0.001,0.963-0.142c0.265-0.142,0.571-0.356,0.921-0.646c0.351-0.288,0.619-0.539,0.806-0.75
				c0.187-0.213,0.394-0.523,0.617-0.936c0.225-0.411,0.396-0.878,0.516-1.399s0.188-0.909,0.203-1.16
				c0.016-0.252,0.019-0.397,0.01-0.438c-0.01-0.039-0.066-0.022-0.171,0.051c-0.104,0.074-0.214,0.173-0.327,0.295
				c-0.113,0.123-0.236,0.241-0.369,0.354c-0.132,0.114-0.335,0.273-0.611,0.479s-0.507,0.312-0.69,0.317
				c-0.185,0.006-0.364-0.027-0.539-0.102c-0.176-0.073-0.304-0.187-0.388-0.341c-0.082-0.153-0.124-0.329-0.124-0.529
				c0-0.199,0.016-0.344,0.047-0.433c0.03-0.089,0.112-0.382,0.248-0.88c0.135-0.497,0.284-0.781,0.447-0.852
				c0.162-0.07,0.29-0.103,0.387-0.097c0.095,0.006,0.17,0.06,0.226,0.161c0.055,0.101,0.049,0.226-0.019,0.373
				s-0.154,0.396-0.258,0.746c-0.104,0.35-0.146,0.62-0.125,0.811c0.022,0.19,0.107,0.256,0.259,0.197
				c0.149-0.058,0.293-0.137,0.428-0.239c0.135-0.101,0.259-0.214,0.373-0.34c0.113-0.126,0.323-0.399,0.631-0.82
				C162.884,79.915,163.094,79.643,163.204,79.52z"/>
		</g>
		<g>
			<path fill="#FFFFFF" d="M165.693,79.948h-0.184v-0.923h-0.314v-0.159h0.814v0.159h-0.316V79.948z M166.596,79.948l-0.303-0.84
				h-0.012l0.009,0.194v0.646h-0.178v-1.082h0.279l0.295,0.84l0.305-0.84h0.271v1.082h-0.191v-0.63l0.01-0.206h-0.013l-0.316,0.836
				H166.596z"/>
		</g>
	</g>
</g>
</svg>
