<?xml version="1.0" encoding="utf-8"?>
<!-- Generator: Adobe Illustrator 16.0.0, SVG Export Plug-In . SVG Version: 6.00 Build 0)  -->
<!DOCTYPE svg PUBLIC "-//W3C//DTD SVG 1.1//EN" "http://www.w3.org/Graphics/SVG/1.1/DTD/svg11.dtd">
<svg version="1.1" id="Layer_1" xmlns="http://www.w3.org/2000/svg" xmlns:xlink="http://www.w3.org/1999/xlink" x="0px" y="0px"
	 width="250px" height="50px" viewBox="0 0 250 50" enable-background="new 0 0 250 50" xml:space="preserve">
<g>
	<g>
		<path fill="#FFFFFF" d="M35.673,10.777c2.054,0.177,3.402,0.316,4.044,0.415c0.641,0.1,1.772,0.218,3.39,0.357
			c1.62,0.139,2.696,0.421,3.228,0.846c0.535,0.426,0.552,0.822,0.062,1.187c-0.497,0.366-1.151,0.549-1.972,0.549
			s-1.582-0.04-2.293-0.119c-0.71-0.079-1.26-0.128-1.645-0.148c-0.386-0.02-1.458-0.089-3.212-0.208
			c-1.76-0.12-2.958-0.168-3.599-0.149c-0.643,0.02-1.14,0.228-1.495,0.624c-0.355,0.396-0.813,0.899-1.365,1.513
			c-0.553,0.614-1.297,1.563-2.233,2.849c-0.939,1.286-1.889,2.731-2.86,4.333c-0.964,1.603-1.878,3.131-2.739,4.586
			c-0.857,1.453-1.288,2.586-1.288,3.397c0,0.812,0.194,1.361,0.578,1.648c0.387,0.286,0.883,0.3,1.498,0.044
			c0.61-0.258,1.089-0.431,1.436-0.52c0.344-0.09,0.838-0.312,1.48-0.667c0.64-0.356,1.326-0.812,2.059-1.365
			c0.728-0.554,0.695-0.401-0.104,0.459c-0.802,0.862-1.408,1.588-1.823,2.181c-0.415,0.594-1.193,1.351-2.338,2.27
			c-1.145,0.921-2.104,1.4-2.874,1.439c-0.77,0.04-1.458-0.143-2.059-0.549c-0.6-0.404-0.967-1.042-1.094-1.914
			c-0.129-0.87-0.195-1.652-0.195-2.345c0-0.691,0.159-1.454,0.475-2.284c0.316-0.831,0.734-1.695,1.246-2.597
			c0.514-0.899,1.479-2.438,2.9-4.614c1.422-2.176,2.747-4.229,3.972-6.157c1.224-1.93,1.317-2.869,0.279-2.82
			c-1.036,0.05-2.535,0.09-4.502,0.118c-1.966,0.031-3.438,0.082-4.424,0.15c-0.988,0.068-1.806,0.251-2.446,0.547
			c-0.64,0.298-1.303,0.278-1.983-0.059c-0.682-0.336-1.078-0.608-1.184-0.817c-0.111-0.207-0.119-0.35-0.031-0.43
			c0.091-0.079,0.432-0.35,1.024-0.816c0.592-0.463,1.208-0.854,1.851-1.171c0.641-0.316,2.837-0.445,6.588-0.386
			c3.751,0.06,6.016,0.109,6.797,0.148c0.779,0.039,1.602,0.084,2.471,0.134C32.159,10.486,33.62,10.598,35.673,10.777z"/>
		<path fill="#FFFFFF" d="M46.661,19.62c0.455-0.119,0.955-0.138,1.496-0.059c0.542,0.079,0.976,0.247,1.304,0.504
			c0.326,0.257,0.637,0.762,0.933,1.513c0.296,0.752,0.161,1.256-0.397,1.514c-0.564,0.256-1.072,0.167-1.529-0.268
			c-0.451-0.435-0.925-0.524-1.421-0.267c-0.491,0.257-0.981,0.52-1.467,0.785c-0.481,0.269-1.077,0.688-1.787,1.262
			c-0.712,0.574-1.446,1.306-2.195,2.196c-0.75,0.891-1.163,1.459-1.241,1.706c-0.08,0.248,0.113,0.213,0.575-0.104
			c0.463-0.316,1.174-0.795,2.133-1.44c0.959-0.641,2.161-1.3,3.615-1.973c1.45-0.672,2.369-0.935,2.753-0.786
			c0.384,0.147,0.716,0.42,0.993,0.815c0.276,0.396,0.434,0.738,0.473,1.025c0.04,0.287-0.005,0.514-0.135,0.681
			c-0.13,0.169-0.276,0.55-0.446,1.143c-0.167,0.594-0.152,1.167,0.044,1.721c0.197,0.554,0.452,0.934,0.757,1.144
			c0.304,0.206,0.728,0.266,1.257,0.178c0.537-0.09,1.191-0.494,1.969-1.218c0.782-0.72,0.748-0.552-0.101,0.505
			c-0.849,1.059-1.52,1.731-2.014,2.019c-0.494,0.287-0.88,0.425-1.157,0.415s-0.638-0.099-1.077-0.269
			c-0.446-0.167-0.866-0.43-1.261-0.785c-0.395-0.357-0.708-0.792-0.934-1.306c-0.226-0.515-0.377-0.895-0.457-1.143
			c-0.079-0.247-0.265-0.52-0.547-0.816c-0.289-0.296-0.637-0.36-1.056-0.192c-0.412,0.168-1.138,0.627-2.176,1.379
			c-1.033,0.752-2.003,1.37-2.9,1.854c-0.9,0.487-1.704,0.822-2.414,1.009c-0.71,0.189-1.168,0.253-1.377,0.193
			c-0.208-0.058-0.435-0.281-0.683-0.667c-0.246-0.385-0.389-0.806-0.429-1.26c-0.039-0.455,0.026-0.914,0.193-1.379
			c0.169-0.465,0.8-1.397,1.895-2.79c1.094-1.397,2.153-2.539,3.171-3.428c1.014-0.891,2.098-1.648,3.243-2.27
			C45.409,20.138,46.208,19.758,46.661,19.62z"/>
		<path fill="#FFFFFF" d="M60.403,19.828c0.79-0.396,1.579-0.653,2.37-0.771c0.79-0.12,1.269,0.029,1.435,0.444
			c0.167,0.416,0.09,0.821-0.237,1.217c-0.325,0.396-0.77,0.619-1.331,0.667c-0.564,0.051-1.17,0.457-1.822,1.218
			c-0.652,0.761-1.027,1.661-1.126,2.699c-0.098,1.041-0.073,1.757,0.074,2.152c0.149,0.396,0.311,1.167,0.49,2.314
			c0.175,1.147,0.057,2.132-0.354,2.953c-0.417,0.822-0.86,1.419-1.334,1.795c-0.475,0.376-1.064,0.653-1.762,0.831
			c-0.7,0.178-1.298,0.267-1.792,0.267s-1.021-0.119-1.585-0.355c-0.562-0.238-0.905-0.727-1.035-1.47
			c-0.129-0.741,0.908-2.115,3.108-4.123c2.201-2.009,2.375-2.068,0.519-0.179c-1.855,1.889-2.58,3.06-2.177,3.516
			c0.406,0.455,0.888,0.574,1.453,0.357c0.56-0.219,1.006-0.509,1.331-0.876c0.327-0.365,0.567-0.81,0.724-1.334
			c0.159-0.524,0.229-1.009,0.209-1.456c-0.019-0.443-0.175-1.433-0.459-2.967c-0.285-1.531-0.285-2.685,0-3.457
			c0.285-0.772,0.71-1.439,1.275-2.004C58.937,20.704,59.613,20.223,60.403,19.828z"/>
		<path fill="#FFFFFF" d="M69.938,13.091c0.237-0.276,0.612-0.396,1.125-0.356c0.514,0.041,0.889,0.198,1.126,0.476
			c0.236,0.277,0.434,0.612,0.592,1.008c0.158,0.396,0.127,0.812-0.088,1.247c-0.22,0.436-0.426,1.005-0.623,1.706
			c-0.197,0.704-0.454,1.688-0.77,2.954c-0.316,1.266-0.295,1.978,0.059,2.136c0.356,0.159,0.967,0.317,1.836,0.476
			c0.869,0.158,2.256,0.218,4.16,0.178s1.802,0.099-0.311,0.415c-2.112,0.316-3.678,0.604-4.693,0.86
			c-1.018,0.257-1.689,0.441-2.014,0.55c-0.328,0.109-0.88,1.206-1.659,3.292c-0.781,2.089-1.295,3.478-1.54,4.17
			c-0.248,0.693-0.51,1.159-0.787,1.396c-0.276,0.237-0.632,0.416-1.066,0.533c-0.435,0.119-0.829,0.1-1.185-0.059
			c-0.354-0.159-0.349-0.801,0.018-1.929c0.364-1.127,0.863-2.463,1.495-4.006c0.631-1.543,0.977-2.502,1.039-2.879
			c0.056-0.376-0.198-0.514-0.773-0.416c-0.57,0.099-1.08,0.154-1.523,0.163c-0.445,0.011-0.663-0.266-0.652-0.831
			c0.009-0.563,0.37-1.023,1.081-1.379s1.343-0.538,1.896-0.548c0.552-0.01,1.045-0.782,1.479-2.315
			c0.435-1.533,0.692-2.552,0.771-3.057c0.079-0.503,0.208-1.192,0.383-2.063C69.497,13.941,69.701,13.368,69.938,13.091z"/>
		<path fill="#FFFFFF" d="M80.304,19.442c1.324-0.1,2.127,0.125,2.415,0.668c0.285,0.544,0.417,1.236,0.4,2.077
			c-0.023,0.841-0.418,1.553-1.185,2.136c-0.773,0.584-1.787,1.162-3.051,1.736c-0.355,0.138-0.677,0.213-0.965,0.223
			c-0.284,0.01-0.521,0-0.71-0.031c-0.186-0.028-0.333-0.06-0.44-0.088c-0.112-0.031-0.175-0.016-0.194,0.044
			c-0.355,0.573-0.539,1.147-0.549,1.721c-0.008,0.573,0.18,1.104,0.563,1.586c0.384,0.486,0.816,0.768,1.289,0.847
			c0.474,0.079,0.967,0.065,1.481-0.044c0.514-0.108,1.46-0.45,2.843-1.024c1.382-0.574,2.344-1.111,2.889-1.618
			c0.541-0.503,1.06-0.994,1.554-1.468c0.494-0.476,0.561-0.476,0.206,0c-0.355,0.475-0.795,1.048-1.315,1.721
			c-0.525,0.672-1.179,1.341-1.957,2.002c-0.779,0.664-1.416,1.173-1.909,1.529c-0.494,0.357-1.15,0.678-1.972,0.963
			c-0.818,0.288-1.622,0.378-2.411,0.269c-0.791-0.11-1.383-0.294-1.778-0.55c-0.394-0.257-0.758-0.563-1.097-0.92
			c-0.333-0.356-0.609-0.776-0.829-1.259c-0.214-0.486-0.327-1.147-0.338-1.99c-0.012-0.839,0.186-1.755,0.591-2.745
			c0.403-0.99,0.863-1.81,1.376-2.463c0.513-0.653,1.208-1.31,2.087-1.975C78.177,20.13,79.178,19.679,80.304,19.442z
			 M80.332,22.112c-0.135-0.138-0.479-0.069-1.02,0.208c-0.542,0.277-0.937,0.589-1.186,0.935c-0.248,0.347-0.291,0.598-0.133,0.756
			c0.158,0.158,0.494,0.094,1.007-0.193c0.514-0.286,0.922-0.572,1.23-0.859C80.535,22.672,80.569,22.389,80.332,22.112z"/>
		<path fill="#FFFFFF" d="M101.707,13.091c0.237-0.276,0.615-0.396,1.129-0.356c0.513,0.041,0.885,0.198,1.122,0.476
			c0.237,0.277,0.435,0.612,0.593,1.008c0.158,0.396,0.13,0.812-0.088,1.247c-0.216,0.436-0.425,1.005-0.623,1.706
			c-0.197,0.704-0.451,1.688-0.767,2.954c-0.316,1.266-0.299,1.978,0.057,2.136c0.355,0.159,0.97,0.317,1.838,0.476
			c0.869,0.158,2.254,0.218,4.158,0.178c1.906-0.04,1.805,0.099-0.31,0.415c-2.111,0.316-3.678,0.604-4.693,0.86
			c-1.016,0.257-1.687,0.441-2.015,0.55c-0.326,0.109-0.879,1.206-1.657,3.292c-0.778,2.089-1.292,3.478-1.54,4.17
			c-0.249,0.693-0.508,1.159-0.785,1.396c-0.276,0.237-0.631,0.416-1.066,0.533c-0.435,0.119-0.829,0.1-1.184-0.059
			c-0.356-0.159-0.351-0.801,0.017-1.929c0.361-1.127,0.862-2.463,1.495-4.006c0.631-1.543,0.976-2.502,1.035-2.879
			c0.059-0.376-0.197-0.514-0.771-0.416c-0.572,0.099-1.083,0.154-1.522,0.163c-0.446,0.011-0.667-0.266-0.654-0.831
			c0.011-0.563,0.373-1.023,1.083-1.379s1.342-0.538,1.895-0.548c0.553-0.01,1.044-0.782,1.478-2.315
			c0.435-1.533,0.694-2.552,0.773-3.057c0.08-0.503,0.207-1.192,0.383-2.063C101.264,13.941,101.47,13.368,101.707,13.091z"/>
		<path fill="#FFFFFF" d="M115.243,2.616c1.027-0.237,1.864-0.109,2.518,0.386c0.649,0.495,0.521,1.366-0.386,2.611
			c-0.909,1.247-2.181,3.873-3.821,7.878c-1.637,4.008-2.702,6.851-3.198,8.532c-0.491,1.682-0.532,2.295-0.119,1.84
			c0.418-0.455,0.823-0.865,1.23-1.232c0.407-0.365,0.854-0.741,1.348-1.127c0.494-0.385,0.943-0.667,1.349-0.846
			c0.403-0.178,0.851-0.311,1.347-0.401c0.491-0.088,0.943-0.018,1.346,0.209c0.403,0.228,0.72,0.519,0.948,0.875
			s0.365,0.999,0.414,1.929c0.052,0.929-0.005,1.904-0.163,2.922c-0.158,1.02-0.167,1.786-0.028,2.301
			c0.137,0.514,0.39,0.969,0.755,1.365c0.364,0.396,0.993,0.489,1.878,0.283c0.892-0.209,1.58-0.574,2.076-1.1
			c0.491-0.523,0.607-0.488,0.338,0.105c-0.265,0.594-0.66,1.123-1.184,1.588c-0.525,0.466-1.159,0.871-1.91,1.215
			c-0.75,0.348-1.362,0.526-1.835,0.535c-0.475,0.011-0.959-0.187-1.45-0.594c-0.497-0.404-0.83-0.988-1.01-1.749
			c-0.176-0.763-0.215-1.944-0.119-3.548c0.103-1.603-0.014-2.556-0.338-2.862c-0.327-0.307-1.168,0.043-2.518,1.052
			c-1.352,1.009-2.373,2.147-3.066,3.414c-0.688,1.266-1.201,2.339-1.54,3.219c-0.333,0.882-0.751,1.252-1.242,1.113
			c-0.497-0.139-0.88-0.366-1.156-0.683c-0.276-0.316-0.414-0.766-0.414-1.35c0-0.583,0.591-2.845,1.776-6.781
			c1.184-3.937,2.535-7.785,4.06-11.543c1.517-3.759,2.408-6.044,2.662-6.855C114.049,4.505,114.532,3.605,115.243,2.616z"/>
		<path fill="#FFFFFF" d="M129.487,19.442c1.321-0.1,2.127,0.125,2.413,0.668c0.284,0.544,0.42,1.236,0.399,2.077
			c-0.019,0.841-0.413,1.553-1.184,2.136c-0.77,0.584-1.785,1.162-3.049,1.736c-0.354,0.138-0.679,0.213-0.965,0.223
			c-0.287,0.01-0.524,0-0.71-0.031c-0.187-0.028-0.335-0.06-0.442-0.088c-0.112-0.031-0.173-0.016-0.196,0.044
			c-0.354,0.573-0.535,1.147-0.546,1.721c-0.012,0.573,0.177,1.104,0.564,1.586c0.384,0.486,0.812,0.768,1.285,0.847
			c0.475,0.079,0.971,0.065,1.484-0.044c0.514-0.108,1.461-0.45,2.844-1.024c1.381-0.574,2.34-1.111,2.884-1.618
			c0.545-0.503,1.063-0.994,1.556-1.468c0.495-0.476,0.563-0.476,0.208,0c-0.356,0.475-0.796,1.048-1.317,1.721
			c-0.525,0.672-1.176,1.341-1.954,2.002c-0.78,0.664-1.416,1.173-1.913,1.529c-0.49,0.357-1.15,0.678-1.968,0.963
			c-0.818,0.288-1.625,0.378-2.415,0.269c-0.789-0.11-1.382-0.294-1.776-0.55c-0.395-0.257-0.759-0.563-1.096-0.92
			c-0.335-0.356-0.612-0.776-0.829-1.259c-0.217-0.486-0.329-1.147-0.341-1.99c-0.008-0.839,0.189-1.755,0.593-2.745
			c0.404-0.99,0.866-1.81,1.379-2.463c0.513-0.653,1.207-1.31,2.087-1.975C127.359,20.13,128.361,19.679,129.487,19.442z
			 M129.516,22.112c-0.136-0.138-0.477-0.069-1.02,0.208c-0.546,0.277-0.938,0.589-1.184,0.935
			c-0.249,0.347-0.295,0.598-0.137,0.756s0.497,0.094,1.01-0.193c0.513-0.286,0.92-0.572,1.228-0.859S129.754,22.389,129.516,22.112
			z"/>
		<path fill="#FFFFFF" d="M154.21,2.616c1.026-0.237,1.867-0.109,2.516,0.386c0.653,0.495,0.524,1.366-0.385,2.611
			c-0.908,1.247-2.183,3.873-3.817,7.878c-1.643,4.008-2.708,6.851-3.199,8.532c-0.497,1.682-0.536,2.295-0.12,1.84
			c0.413-0.455,0.824-0.865,1.228-1.232c0.404-0.365,0.855-0.741,1.349-1.127c0.494-0.385,0.943-0.667,1.349-0.846
			c0.402-0.178,0.854-0.311,1.346-0.401c0.496-0.088,0.941-0.018,1.349,0.209c0.406,0.228,0.722,0.519,0.947,0.875
			s0.366,0.999,0.415,1.929c0.047,0.929-0.003,1.904-0.161,2.922c-0.159,1.02-0.169,1.786-0.031,2.301
			c0.138,0.514,0.389,0.969,0.755,1.365c0.365,0.396,0.991,0.489,1.882,0.283c0.887-0.209,1.579-0.574,2.07-1.1
			c0.496-0.523,0.61-0.488,0.341,0.105c-0.265,0.594-0.661,1.123-1.185,1.588c-0.521,0.466-1.159,0.871-1.909,1.215
			c-0.749,0.348-1.361,0.526-1.836,0.535c-0.475,0.011-0.957-0.187-1.453-0.594c-0.49-0.404-0.83-0.988-1.003-1.749
			c-0.181-0.763-0.22-1.944-0.119-3.548c0.097-1.603-0.017-2.556-0.341-2.862c-0.328-0.307-1.165,0.043-2.52,1.052
			c-1.353,1.009-2.375,2.147-3.063,3.414c-0.694,1.266-1.207,2.339-1.54,3.219c-0.339,0.882-0.75,1.252-1.247,1.113
			c-0.49-0.139-0.877-0.366-1.152-0.683c-0.276-0.316-0.415-0.766-0.415-1.35c0-0.583,0.591-2.845,1.777-6.781
			c1.185-3.937,2.538-7.785,4.055-11.543c1.523-3.759,2.409-6.044,2.669-6.855C153.013,4.505,153.498,3.605,154.21,2.616z"/>
		<path fill="#FFFFFF" d="M166.438,19.323c0.435-0.099,0.935-0.068,1.497,0.09c0.562,0.158,0.66,0.731,0.297,1.72
			c-0.365,0.99-0.767,2.275-1.202,3.858c-0.434,1.583-0.843,2.869-1.227,3.858c-0.388,0.989-0.815,1.845-1.289,2.566
			c-0.473,0.723-0.927,1.113-1.361,1.172c-0.435,0.06-0.736,0.046-0.902-0.044c-0.17-0.087-0.185-0.548-0.046-1.379
			c0.138-0.831,0.429-2.101,0.875-3.813c0.442-1.711,0.863-3.201,1.256-4.467c0.396-1.266,0.401-1.915,0.017-1.943
			c-0.386-0.031-0.238-0.283,0.444-0.757C165.477,19.708,166.027,19.422,166.438,19.323z M171.178,10.332
			c0.435,0.356,0.695,1.133,0.787,2.329c0.087,1.199,0.498,2.366,1.226,3.501c0.734,1.14,1.591,2.044,2.579,2.717
			c0.986,0.672,1.89,1.147,2.709,1.424c0.818,0.277,0.793,0.342-0.075,0.192c-0.869-0.146-1.731-0.493-2.59-1.037
			c-0.86-0.544-1.782-1.355-2.771-2.433c-0.986-1.079-1.709-1.871-2.16-2.374c-0.456-0.506-0.777-0.787-0.965-0.847
			c-0.186-0.06-0.343-0.103-0.472-0.134c-0.13-0.027-0.424-0.226-0.889-0.593c-0.467-0.365-0.633-0.816-0.503-1.349
			c0.128-0.535,0.302-0.93,0.517-1.187c0.22-0.258,0.598-0.45,1.143-0.578C170.254,9.833,170.743,9.956,171.178,10.332z"/>
		<path fill="#FFFFFF" d="M176.302,19.828c0.79-0.396,1.579-0.653,2.369-0.771c0.79-0.12,1.267,0.029,1.436,0.444
			c0.168,0.416,0.091,0.821-0.237,1.217c-0.324,0.396-0.771,0.619-1.331,0.667c-0.563,0.051-1.171,0.457-1.821,1.218
			c-0.652,0.761-1.027,1.661-1.126,2.699c-0.098,1.041-0.074,1.757,0.074,2.152c0.148,0.396,0.313,1.167,0.487,2.314
			c0.181,1.147,0.063,2.132-0.355,2.953c-0.412,0.822-0.856,1.419-1.331,1.795c-0.474,0.376-1.06,0.653-1.763,0.831
			c-0.702,0.178-1.298,0.267-1.793,0.267c-0.492,0-1.02-0.119-1.583-0.355c-0.562-0.238-0.908-0.727-1.036-1.47
			c-0.127-0.741,0.908-2.115,3.108-4.123c2.202-2.009,2.376-2.068,0.52-0.179c-1.855,1.889-2.581,3.06-2.179,3.516
			c0.403,0.455,0.889,0.574,1.453,0.357c0.562-0.219,1.007-0.509,1.333-0.876c0.326-0.365,0.568-0.81,0.727-1.334
			c0.157-0.524,0.225-1.009,0.206-1.456c-0.021-0.443-0.172-1.433-0.459-2.967c-0.288-1.531-0.288-2.685,0-3.457
			c0.287-0.772,0.71-1.439,1.274-2.004C174.835,20.704,175.513,20.223,176.302,19.828z"/>
		<path fill="#FFFFFF" d="M185.837,13.091c0.237-0.276,0.612-0.396,1.126-0.356c0.515,0.041,0.889,0.198,1.126,0.476
			c0.236,0.277,0.434,0.612,0.593,1.008c0.157,0.396,0.129,0.812-0.091,1.247c-0.215,0.436-0.423,1.005-0.621,1.706
			c-0.197,0.704-0.455,1.688-0.771,2.954c-0.315,1.266-0.295,1.978,0.061,2.136c0.355,0.159,0.967,0.317,1.836,0.476
			c0.869,0.158,2.254,0.218,4.16,0.178s1.802,0.099-0.312,0.415c-2.111,0.316-3.678,0.604-4.693,0.86
			c-1.018,0.257-1.688,0.441-2.013,0.55c-0.327,0.109-0.88,1.206-1.659,3.292c-0.78,2.089-1.294,3.478-1.539,4.17
			c-0.247,0.693-0.507,1.159-0.783,1.396c-0.278,0.237-0.633,0.416-1.067,0.533c-0.436,0.119-0.83,0.1-1.184-0.059
			c-0.356-0.159-0.354-0.801,0.013-1.929c0.364-1.127,0.863-2.463,1.496-4.006c0.631-1.543,0.978-2.502,1.033-2.879
			c0.063-0.376-0.195-0.514-0.767-0.416c-0.574,0.099-1.083,0.154-1.525,0.163c-0.445,0.011-0.663-0.266-0.651-0.831
			c0.009-0.563,0.369-1.023,1.08-1.379c0.712-0.356,1.343-0.538,1.896-0.548c0.553-0.01,1.047-0.782,1.48-2.315
			c0.435-1.533,0.691-2.552,0.771-3.057c0.079-0.503,0.205-1.192,0.388-2.063C185.392,13.941,185.601,13.368,185.837,13.091z"/>
		<path fill="#FFFFFF" d="M193.746,20.985c0.373-0.356,0.832-0.584,1.377-0.683c0.541-0.099,0.992-0.069,1.347,0.089
			c0.355,0.159,0.655,0.441,0.903,0.847c0.247,0.406,0.863,0.597,1.851,0.578c0.987-0.019,2.218-0.016,3.688,0.016
			c1.467,0.028,1.157,0.074-0.935,0.133c-2.094,0.059-3.285,0.144-3.566,0.251c-0.288,0.11-0.405,0.46-0.355,1.054
			c0.046,0.593,0.085,1.222,0.119,1.885c0.027,0.663,0.033,1.398,0.01,2.21c-0.016,0.811-0.077,1.415-0.173,1.81
			c-0.103,0.396-0.249,0.811-0.446,1.247c-0.199,0.435-0.492,0.896-0.875,1.38c-0.383,0.485-0.856,0.935-1.422,1.35
			c-0.563,0.416-1.08,0.727-1.552,0.934c-0.476,0.209-0.989,0.218-1.541,0.031c-0.554-0.188-1.002-0.484-1.346-0.89
			c-0.349-0.406-0.627-0.828-0.83-1.263c-0.208-0.434-0.299-1.196-0.271-2.284c0.033-1.087,0.153-1.962,0.355-2.625
			c0.209-0.663,0.53-1.356,0.964-2.078c0.435-0.722,0.565-1.059,0.385-1.009c-0.175,0.05-0.221,0.024-0.129-0.075
			c0.084-0.099,0.427-0.524,1.021-1.276C192.918,21.865,193.392,21.321,193.746,20.985z M195.224,25.644
			c-0.434-0.535-0.975-0.386-1.627,0.445c-0.652,0.832-1.04,1.712-1.171,2.641c-0.13,0.931-0.079,1.583,0.148,1.959
			c0.227,0.375,0.465,0.593,0.71,0.652c0.248,0.06,0.598-0.104,1.054-0.489c0.452-0.388,0.824-1.222,1.111-2.508
			C195.731,27.059,195.658,26.158,195.224,25.644z"/>
		<path fill="#FFFFFF" d="M202.125,23.626c0.712-2.75,1.396-4.095,2.057-4.036c0.663,0.059,1.163,0.356,1.498,0.89
			s0.302,1.192-0.105,1.973c-0.404,0.783-0.445,1.149-0.118,1.099c0.328-0.049,0.756-0.247,1.289-0.593
			c0.534-0.346,1.041-0.624,1.527-0.831c0.482-0.209,0.872-0.342,1.166-0.401c0.3-0.06,0.864,0.04,1.704,0.297
			s1.636,0.619,2.387,1.083c0.75,0.466,1.739,0.506,2.973,0.118c1.236-0.384,1.104-0.255-0.398,0.388
			c-1.5,0.643-3.037,0.944-4.605,0.904c-1.567-0.04-2.779,0.148-3.644,0.563c-0.856,0.415-1.582,0.876-2.175,1.381
			c-0.593,0.502-1.143,1.334-1.644,2.492c-0.503,1.156-0.887,2.131-1.158,2.923c-0.265,0.792-0.501,1.438-0.711,1.944
			c-0.202,0.503-0.63,0.772-1.269,0.801c-0.642,0.031-1.065-0.202-1.274-0.698c-0.208-0.494-0.256-0.814-0.148-0.964
			c0.108-0.147,0.405-1.053,0.887-2.714C200.848,28.582,201.435,26.376,202.125,23.626z"/>
		<path fill="#FFFFFF" d="M224.455,21.786c0.376-0.396,0.817-0.523,1.332-0.385c0.513,0.138,0.88,0.366,1.096,0.683
			c0.218,0.316,0.291,0.643,0.224,0.979c-0.07,0.336-0.085,0.956-0.044,1.856c0.038,0.9-0.035,2.19-0.226,3.872
			c-0.187,1.682-0.369,3.086-0.545,4.214c-0.178,1.127-0.583,2.429-1.217,3.903c-0.631,1.473-1.46,2.858-2.487,4.154
			c-1.026,1.296-2.233,2.424-3.627,3.383c-1.391,0.96-2.629,1.671-3.718,2.136c-1.082,0.465-1.943,0.746-2.575,0.845
			c-0.631,0.1-1.244,0.1-1.836,0c-0.592-0.099-1.106-0.529-1.54-1.291c-0.434-0.76-0.225-1.869,0.62-3.323
			c0.853-1.453,0.993-1.529,0.433-0.223c-0.564,1.306-0.236,2.033,0.976,2.181c1.216,0.149,2.248-0.004,3.094-0.46
			c0.853-0.454,1.839-1.146,2.962-2.076c1.128-0.93,1.991-1.737,2.592-2.417c0.601-0.684,1.264-1.688,1.986-3.013
			c0.718-1.325,1.271-2.829,1.658-4.51c0.383-1.682,0.601-2.929,0.65-3.739c0.049-0.812,0.06-1.281,0.029-1.411
			c-0.029-0.127-0.212-0.073-0.548,0.164c-0.337,0.238-0.688,0.555-1.052,0.95c-0.364,0.396-0.758,0.778-1.184,1.142
			c-0.427,0.367-1.081,0.882-1.97,1.543c-0.888,0.665-1.627,1.006-2.22,1.024c-0.592,0.021-1.171-0.088-1.734-0.326
			c-0.562-0.237-0.976-0.603-1.242-1.098c-0.268-0.494-0.401-1.063-0.401-1.705c0-0.643,0.049-1.108,0.148-1.396
			c0.1-0.286,0.363-1.231,0.798-2.834c0.435-1.602,0.915-2.516,1.438-2.746c0.522-0.226,0.937-0.331,1.244-0.311
			c0.304,0.021,0.548,0.193,0.725,0.52c0.178,0.325,0.158,0.727-0.058,1.202c-0.218,0.475-0.494,1.276-0.831,2.403
			c-0.336,1.128-0.469,1.998-0.4,2.611c0.071,0.614,0.347,0.828,0.829,0.638c0.483-0.187,0.944-0.444,1.379-0.771
			c0.436-0.324,0.832-0.69,1.198-1.096c0.366-0.405,1.042-1.287,2.03-2.644C223.429,23.058,224.101,22.182,224.455,21.786z"/>
	</g>
	<g>
		<path fill="#FFFFFF" d="M232.46,23.167h-0.593v-2.976h-1.01v-0.512h2.622v0.512h-1.02V23.167z M235.358,23.167l-0.971-2.705
			h-0.039l0.029,0.625v2.08h-0.574v-3.487h0.901l0.946,2.705l0.979-2.705h0.869v3.487h-0.612v-2.031l0.03-0.663h-0.039l-1.021,2.694
			H235.358z"/>
	</g>
</g>
</svg>
